<svg width="31" height="31" viewBox="0 0 31 31" fill="none" xmlns="http://www.w3.org/2000/svg">
<path opacity="0.6" fill-rule="evenodd" clip-rule="evenodd" d="M15.3999 30.2007C23.6842 30.2007 30.3999 23.485 30.3999 15.2007C30.3999 6.91641 23.6842 0.200684 15.3999 0.200684C7.11563 0.200684 0.399902 6.91641 0.399902 15.2007C0.399902 23.485 7.11563 30.2007 15.3999 30.2007ZM15.9351 11.2758C14.4773 11.8825 11.5617 13.1386 7.18824 15.0436C6.47808 15.326 6.10537 15.6023 6.07256 15.8723C6.01485 16.3284 6.58607 16.5083 7.36223 16.7527C7.4687 16.7863 7.57903 16.821 7.69212 16.8579C8.45853 17.1068 9.48971 17.3981 10.0241 17.4096C10.5116 17.4201 11.053 17.2197 11.6506 16.8086C15.7381 14.0508 17.8452 12.6567 17.9788 12.6267C18.0725 12.6056 18.2015 12.5789 18.2882 12.6569C18.3773 12.7347 18.3678 12.8824 18.3585 12.922C18.3032 13.1629 16.0678 15.2413 14.9046 16.3228C14.5389 16.6628 14.2792 16.9042 14.2265 16.9591C14.1087 17.0814 13.9887 17.1971 13.8734 17.3083C13.1621 17.9939 12.6285 18.5083 13.9031 19.3481C14.5211 19.7552 15.0144 20.0912 15.5074 20.427C16.0371 20.7878 16.5664 21.1484 17.2499 21.5967C17.4256 21.7118 17.5934 21.8315 17.7568 21.948C18.3781 22.3909 18.9362 22.7887 19.6265 22.7253C20.0273 22.6885 20.4421 22.3116 20.6507 21.1875C21.1476 18.5308 22.1249 12.775 22.3499 10.4032C22.371 10.1955 22.3452 9.9295 22.3265 9.81278C22.3054 9.69606 22.2632 9.52966 22.1132 9.40661C21.9327 9.2606 21.6561 9.22989 21.5319 9.232C20.9671 9.24208 20.1023 9.54302 15.9351 11.2758Z" fill="white"/>
</svg>
