<svg width="110" height="78" viewBox="0 0 110 78" fill="none" xmlns="http://www.w3.org/2000/svg">
<circle cx="55" cy="23.0004" r="44.9073" transform="rotate(-15 55 23.0004)" fill="#F7F6FF" stroke="#0D0B33" stroke-width="1.3"/>
<path d="M66.6191 66.3775C90.5756 59.9583 104.792 35.334 98.3733 11.3775C95.0115 -1.16912 86.6562 -11.0443 76.0186 -16.6827C88.0531 18.0716 73.0763 48.9318 38.3424 64.7084C47.0333 68.1864 56.8814 68.9867 66.6191 66.3775Z" fill="#79EFBD"/>
<path d="M38.3424 64.7084C47.0333 68.1864 56.8814 68.9867 66.6191 66.3775C90.5756 59.9583 104.792 35.334 98.3733 11.3775C95.0115 -1.16911 86.6562 -11.0443 76.0186 -16.6827M38.3424 64.7084C73.0763 48.9318 88.0531 18.0716 76.0186 -16.6827M38.3424 64.7084C38.0963 64.6099 37.851 64.5092 37.6067 64.4064M76.0186 -16.6827C75.8057 -16.7955 75.592 -16.9066 75.3773 -17.0161" stroke="#0D0B33" stroke-width="1.3"/>
<ellipse cx="66.7284" cy="56.5487" rx="1.58124" ry="1.26499" transform="rotate(-6.62574 66.7284 56.5487)" fill="#0D0B33"/>
<path d="M51.2309 67.3031C51.0542 68.1015 49.7744 67.6103 48.3882 67.3035C47.002 66.9967 45.6781 67.1528 45.8548 66.3544C46.0315 65.556 47.5916 64.7546 48.9778 65.0614C50.364 65.3682 51.4076 66.5047 51.2309 67.3031Z" fill="#0D0B33"/>
<path d="M99.1961 29.1606C99.986 29.3722 99.439 30.6291 99.0715 32.0005C98.7041 33.3718 98.8017 34.7013 98.0119 34.4897C97.2221 34.2781 96.49 32.6842 96.8575 31.3129C97.2249 29.9415 98.4063 28.9489 99.1961 29.1606Z" fill="#0D0B33"/>
<ellipse cx="45.5414" cy="43.8993" rx="2.52999" ry="1.89749" transform="rotate(25.569 45.5414 43.8993)" fill="#0D0B33"/>
<ellipse cx="25.9219" cy="11.543" rx="3.62337" ry="2.71752" transform="rotate(103.887 25.9219 11.543)" fill="#0D0B33"/>
<ellipse cx="11.3861" cy="29.0344" rx="1.26499" ry="1.58124" fill="#0D0B33"/>
<ellipse cx="85.0772" cy="38.8398" rx="1.58124" ry="1.26499" transform="rotate(-35.8405 85.0772 38.8398)" fill="#0D0B33"/>
<ellipse cx="82.5413" cy="50.2231" rx="0.948746" ry="0.632497" transform="rotate(-39.1719 82.5413 50.2231)" fill="#0D0B33"/>
<circle cx="86.0231" cy="11.6423" r="0.632497" fill="#0D0B33"/>
<circle cx="84.1205" cy="5.95054" r="1.26499" fill="#0D0B33"/>
<circle cx="32.2572" cy="17.9662" r="1.26499" fill="#0D0B33"/>
<ellipse cx="93.292" cy="20.4981" rx="0.948746" ry="0.632497" transform="rotate(-85.6781 93.292 20.4981)" fill="#0D0B33"/>
<ellipse cx="35.7295" cy="48.3269" rx="0.948746" ry="0.632497" transform="rotate(20.9902 35.7295 48.3269)" fill="#0D0B33"/>
</svg>
