<svg width="1296" height="1193" viewBox="0 0 1296 1193" fill="none" xmlns="http://www.w3.org/2000/svg">
<path opacity="0.3" d="M1213 475.974V110" stroke="url(#paint0_linear_7408_119227)" stroke-width="3" stroke-dasharray="162 122"/>
<path opacity="0.3" d="M198 383.974V18" stroke="url(#paint1_linear_7408_119227)" stroke-width="3" stroke-dasharray="162 122"/>
<path opacity="0.3" d="M52 550.974V185" stroke="url(#paint2_linear_7408_119227)" stroke-width="3" stroke-dasharray="162 122"/>
<path d="M391.006 333.012C392.666 333.012 394.012 331.666 394.012 330.006C394.012 328.346 392.666 327 391.006 327C389.346 327 388 328.346 388 330.006C388 331.666 389.346 333.012 391.006 333.012Z" fill="#F7F6FF"/>
<path d="M195.006 697.012C196.666 697.012 198.012 695.666 198.012 694.006C198.012 692.346 196.666 691 195.006 691C193.346 691 192 692.346 192 694.006C192 695.666 193.346 697.012 195.006 697.012Z" fill="#F7F6FF"/>
<path d="M1118.01 488.012C1119.67 488.012 1121.02 486.666 1121.02 485.006C1121.02 483.346 1119.67 482 1118.01 482C1116.35 482 1115 483.346 1115 485.006C1115 486.666 1116.35 488.012 1118.01 488.012Z" fill="#F7F6FF"/>
<path d="M1239.01 277.012C1240.67 277.012 1242.02 275.666 1242.02 274.006C1242.02 272.346 1240.67 271 1239.01 271C1237.35 271 1236 272.346 1236 274.006C1236 275.666 1237.35 277.012 1239.01 277.012Z" fill="#F7F6FF"/>
<path d="M1142.01 327.012C1143.67 327.012 1145.02 325.666 1145.02 324.006C1145.02 322.346 1143.67 321 1142.01 321C1140.35 321 1139 322.346 1139 324.006C1139 325.666 1140.35 327.012 1142.01 327.012Z" fill="#F7F6FF"/>
<path d="M741.006 320.012C742.666 320.012 744.012 318.666 744.012 317.006C744.012 315.346 742.666 314 741.006 314C739.346 314 738 315.346 738 317.006C738 318.666 739.346 320.012 741.006 320.012Z" fill="#F7F6FF"/>
<path d="M3.00606 412.012C4.66626 412.012 6.01212 410.666 6.01212 409.006C6.01212 407.346 4.66626 406 3.00606 406C1.34586 406 0 407.346 0 409.006C0 410.666 1.34586 412.012 3.00606 412.012Z" fill="#F7F6FF"/>
<path d="M74.0061 299.012C75.6663 299.012 77.0121 297.666 77.0121 296.006C77.0121 294.346 75.6663 293 74.0061 293C72.3459 293 71 294.346 71 296.006C71 297.666 72.3459 299.012 74.0061 299.012Z" fill="#F7F6FF"/>
<path d="M134.006 450.012C135.666 450.012 137.012 448.666 137.012 447.006C137.012 445.346 135.666 444 134.006 444C132.346 444 131 445.346 131 447.006C131 448.666 132.346 450.012 134.006 450.012Z" fill="#F7F6FF"/>
<path d="M368.509 309.018C370.999 309.018 373.018 306.999 373.018 304.509C373.018 302.019 370.999 300 368.509 300C366.019 300 364 302.019 364 304.509C364 306.999 366.019 309.018 368.509 309.018Z" fill="#F7F6FF"/>
<path d="M1183.51 342.018C1186 342.018 1188.02 339.999 1188.02 337.509C1188.02 335.019 1186 333 1183.51 333C1181.02 333 1179 335.019 1179 337.509C1179 339.999 1181.02 342.018 1183.51 342.018Z" fill="#F7F6FF"/>
<path d="M23.5149 311.404C25.0557 311.79 26.2588 312.993 26.644 314.534L28.0905 320.319C28.1976 320.748 28.5826 321.049 29.0243 321.049C29.4659 321.049 29.8509 320.748 29.958 320.319L31.4045 314.534C31.7897 312.993 32.9928 311.79 34.5336 311.405L40.3194 309.958C40.7479 309.851 41.0485 309.466 41.0485 309.024C41.0485 308.583 40.7479 308.198 40.3194 308.09L34.5336 306.644C32.9928 306.259 31.7897 305.056 31.4045 303.515L29.958 297.729C29.8509 297.301 29.4659 297 29.0243 297C28.5826 297 28.1976 297.301 28.0905 297.729L26.644 303.515C26.2588 305.056 25.0557 306.259 23.5149 306.644L17.7291 308.09C17.3006 308.198 17 308.583 17 309.024C17 309.466 17.3006 309.851 17.7291 309.958L23.5149 311.404Z" stroke="white" stroke-width="2"/>
<path d="M959.515 245.404C961.056 245.79 962.259 246.993 962.644 248.534L964.09 254.319C964.198 254.748 964.583 255.049 965.024 255.049C965.466 255.049 965.851 254.748 965.958 254.319L967.405 248.534C967.79 246.993 968.993 245.79 970.534 245.405L976.319 243.958C976.748 243.851 977.049 243.466 977.049 243.024C977.049 242.583 976.748 242.198 976.319 242.09L970.534 240.644C968.993 240.259 967.79 239.056 967.405 237.515L965.958 231.729C965.851 231.301 965.466 231 965.024 231C964.583 231 964.198 231.301 964.09 231.729L962.644 237.515C962.259 239.056 961.056 240.259 959.515 240.644L953.729 242.09C953.301 242.198 953 242.583 953 243.024C953 243.466 953.301 243.851 953.729 243.958L959.515 245.404Z" fill="#F7F6FF"/>
<path d="M1257.51 592.404C1259.06 592.79 1260.26 593.993 1260.64 595.534L1262.09 601.319C1262.2 601.748 1262.58 602.049 1263.02 602.049C1263.47 602.049 1263.85 601.748 1263.96 601.319L1265.4 595.534C1265.79 593.993 1266.99 592.79 1268.53 592.405L1274.32 590.958C1274.75 590.851 1275.05 590.466 1275.05 590.024C1275.05 589.583 1274.75 589.198 1274.32 589.09L1268.53 587.644C1266.99 587.259 1265.79 586.056 1265.4 584.515L1263.96 578.729C1263.85 578.301 1263.47 578 1263.02 578C1262.58 578 1262.2 578.301 1262.09 578.729L1260.64 584.515C1260.26 586.056 1259.06 587.259 1257.51 587.644L1251.73 589.09C1251.3 589.198 1251 589.583 1251 590.024C1251 590.466 1251.3 590.851 1251.73 590.958L1257.51 592.404Z" stroke="white" stroke-width="2"/>
<path d="M465.515 264.404C467.056 264.79 468.259 265.993 468.644 267.534L470.09 273.319C470.198 273.748 470.583 274.049 471.024 274.049C471.466 274.049 471.851 273.748 471.958 273.319L473.405 267.534C473.79 265.993 474.993 264.79 476.534 264.405L482.319 262.958C482.748 262.851 483.049 262.466 483.049 262.024C483.049 261.583 482.748 261.198 482.319 261.09L476.534 259.644C474.993 259.259 473.79 258.056 473.405 256.515L471.958 250.729C471.851 250.301 471.466 250 471.024 250C470.583 250 470.198 250.301 470.09 250.729L468.644 256.515C468.259 258.056 467.056 259.259 465.515 259.644L459.729 261.09C459.301 261.198 459 261.583 459 262.024C459 262.466 459.301 262.851 459.729 262.958L465.515 264.404Z" fill="#F7F6FF"/>
<path d="M161.515 604.404C163.056 604.79 164.259 605.993 164.644 607.534L166.09 613.319C166.198 613.748 166.583 614.049 167.024 614.049C167.466 614.049 167.851 613.748 167.958 613.319L169.405 607.534C169.79 605.993 170.993 604.79 172.534 604.405L178.319 602.958C178.748 602.851 179.049 602.466 179.049 602.024C179.049 601.583 178.748 601.198 178.319 601.09L172.534 599.644C170.993 599.259 169.79 598.056 169.405 596.515L167.958 590.729C167.851 590.301 167.466 590 167.024 590C166.583 590 166.198 590.301 166.09 590.729L164.644 596.515C164.259 598.056 163.056 599.259 161.515 599.644L155.729 601.09C155.301 601.198 155 601.583 155 602.024C155 602.466 155.301 602.851 155.729 602.958L161.515 604.404Z" stroke="white" stroke-width="2"/>
<path d="M1077.26 391.202C1078.03 391.395 1078.63 391.996 1078.82 392.767L1079.55 395.66C1079.6 395.874 1079.79 396.024 1080.01 396.024C1080.23 396.024 1080.43 395.874 1080.48 395.66L1081.2 392.767C1081.39 391.996 1082 391.395 1082.77 391.202L1085.66 390.479C1085.87 390.425 1086.02 390.233 1086.02 390.012C1086.02 389.791 1085.87 389.599 1085.66 389.545L1082.77 388.822C1082 388.629 1081.39 388.028 1081.2 387.257L1080.48 384.365C1080.43 384.15 1080.23 384 1080.01 384C1079.79 384 1079.6 384.15 1079.55 384.365L1078.82 387.257C1078.63 388.028 1078.03 388.629 1077.26 388.822L1074.36 389.545C1074.15 389.599 1074 389.791 1074 390.012C1074 390.233 1074.15 390.425 1074.36 390.479L1077.26 391.202Z" stroke="white" stroke-width="2"/>
<g opacity="0.2">
<path d="M904.041 828.012C902.381 828.012 901.035 826.666 901.035 825.006C901.035 823.346 902.381 822 904.041 822C905.701 822 907.047 823.346 907.047 825.006C907.047 826.666 905.701 828.012 904.041 828.012Z" fill="#F7F6FF"/>
<path d="M1100.04 1192.02C1098.38 1192.02 1097.03 1190.67 1097.03 1189.01C1097.03 1187.35 1098.38 1186 1100.04 1186C1101.7 1186 1103.05 1187.35 1103.05 1189.01C1103.05 1190.67 1101.7 1192.02 1100.04 1192.02Z" fill="#F7F6FF"/>
<path d="M33.0057 977.012C31.3455 977.012 29.9996 975.666 29.9996 974.006C29.9996 972.346 31.3455 971 33.0057 971C34.6659 971 36.0117 972.346 36.0117 974.006C36.0117 975.666 34.6659 977.012 33.0057 977.012Z" fill="#F7F6FF"/>
<path d="M147.006 726.012C145.345 726.012 144 724.666 144 723.006C144 721.346 145.345 720 147.006 720C148.666 720 150.012 721.346 150.012 723.006C150.012 724.666 148.666 726.012 147.006 726.012Z" fill="#F7F6FF"/>
<path d="M554.041 815.012C552.381 815.012 551.035 813.666 551.035 812.006C551.035 810.346 552.381 809 554.041 809C555.701 809 557.047 810.346 557.047 812.006C557.047 813.666 555.701 815.012 554.041 815.012Z" fill="#F7F6FF"/>
<path d="M1292.04 907.012C1290.38 907.012 1289.03 905.666 1289.03 904.006C1289.03 902.346 1290.38 901 1292.04 901C1293.7 901 1295.05 902.346 1295.05 904.006C1295.05 905.666 1293.7 907.012 1292.04 907.012Z" fill="#F7F6FF"/>
<path d="M1086.01 744.012C1084.35 744.012 1083 742.666 1083 741.006C1083 739.346 1084.35 738 1086.01 738C1087.67 738 1089.02 739.346 1089.02 741.006C1089.02 742.666 1087.67 744.012 1086.01 744.012Z" fill="#F7F6FF"/>
<path d="M1161.04 945.012C1159.38 945.012 1158.03 943.666 1158.03 942.006C1158.03 940.346 1159.38 939 1161.04 939C1162.7 939 1164.05 940.346 1164.05 942.006C1164.05 943.666 1162.7 945.012 1161.04 945.012Z" fill="#F7F6FF"/>
<path d="M926.538 804.018C924.047 804.018 922.029 801.999 922.029 799.509C922.029 797.019 924.047 795 926.538 795C929.028 795 931.047 797.019 931.047 799.509C931.047 801.999 929.028 804.018 926.538 804.018Z" fill="#F7F6FF"/>
<path d="M4.51044 623.018C2.02014 623.018 0.00135136 620.999 0.00135136 618.509C0.00135136 616.019 2.02014 614 4.51044 614C7.00074 614 9.01953 616.019 9.01953 618.509C9.01953 620.999 7.00074 623.018 4.51044 623.018Z" fill="#F7F6FF"/>
<path d="M817.532 969.404C815.991 969.79 814.788 970.993 814.403 972.534L812.956 978.319C812.849 978.748 812.464 979.049 812.023 979.049C811.581 979.049 811.196 978.748 811.089 978.319L809.642 972.534C809.257 970.993 808.054 969.79 806.513 969.405L800.727 967.958C800.299 967.851 799.998 967.466 799.998 967.024C799.998 966.583 800.299 966.198 800.727 966.09L806.513 964.644C808.054 964.259 809.257 963.056 809.642 961.515L811.089 955.729C811.196 955.301 811.581 955 812.023 955C812.464 955 812.849 955.301 812.956 955.729L814.403 961.515C814.788 963.056 815.991 964.259 817.532 964.644L823.318 966.09C823.746 966.198 824.047 966.583 824.047 967.024C824.047 967.466 823.746 967.851 823.318 967.958L817.532 969.404Z" stroke="white" stroke-width="2"/>
<path d="M335.532 740.404C333.991 740.79 332.788 741.993 332.403 743.534L330.956 749.319C330.849 749.748 330.464 750.049 330.023 750.049C329.581 750.049 329.196 749.748 329.089 749.319L327.642 743.534C327.257 741.993 326.054 740.79 324.513 740.405L318.727 738.958C318.299 738.851 317.998 738.466 317.998 738.024C317.998 737.583 318.299 737.198 318.727 737.09L324.513 735.644C326.054 735.259 327.257 734.056 327.642 732.515L329.089 726.729C329.196 726.301 329.581 726 330.023 726C330.464 726 330.849 726.301 330.956 726.729L332.403 732.515C332.788 734.056 333.991 735.259 335.532 735.644L341.318 737.09C341.746 737.198 342.047 737.583 342.047 738.024C342.047 738.466 341.746 738.851 341.318 738.958L335.532 740.404Z" fill="#F7F6FF"/>
<path d="M37.5315 1087.4C35.9907 1087.79 34.7877 1088.99 34.4025 1090.53L32.956 1096.32C32.8489 1096.75 32.4639 1097.05 32.0222 1097.05C31.5806 1097.05 31.1956 1096.75 31.0884 1096.32L29.642 1090.53C29.2568 1088.99 28.0537 1087.79 26.5129 1087.4L20.727 1085.96C20.2986 1085.85 19.998 1085.47 19.998 1085.02C19.998 1084.58 20.2986 1084.2 20.727 1084.09L26.5129 1082.64C28.0537 1082.26 29.2568 1081.06 29.642 1079.51L31.0884 1073.73C31.1956 1073.3 31.5806 1073 32.0222 1073C32.4639 1073 32.8489 1073.3 32.956 1073.73L34.4025 1079.51C34.7877 1081.06 35.9907 1082.26 37.5315 1082.64L43.3174 1084.09C43.7459 1084.2 44.0465 1084.58 44.0465 1085.02C44.0465 1085.47 43.7459 1085.85 43.3174 1085.96L37.5315 1087.4Z" stroke="white" stroke-width="2"/>
<path d="M829.532 759.404C827.991 759.79 826.788 760.993 826.403 762.534L824.956 768.319C824.849 768.748 824.464 769.049 824.023 769.049C823.581 769.049 823.196 768.748 823.089 768.319L821.642 762.534C821.257 760.993 820.054 759.79 818.513 759.405L812.727 757.958C812.299 757.851 811.998 757.466 811.998 757.024C811.998 756.583 812.299 756.198 812.727 756.09L818.513 754.644C820.054 754.259 821.257 753.056 821.642 751.515L823.089 745.729C823.196 745.301 823.581 745 824.023 745C824.464 745 824.849 745.301 824.956 745.729L826.403 751.515C826.788 753.056 827.991 754.259 829.532 754.644L835.318 756.09C835.746 756.198 836.047 756.583 836.047 757.024C836.047 757.466 835.746 757.851 835.318 757.958L829.532 759.404Z" fill="#F7F6FF"/>
<path d="M1133.53 1099.4C1131.99 1099.79 1130.79 1100.99 1130.4 1102.53L1128.96 1108.32C1128.85 1108.75 1128.46 1109.05 1128.02 1109.05C1127.58 1109.05 1127.2 1108.75 1127.09 1108.32L1125.64 1102.53C1125.26 1100.99 1124.05 1099.79 1122.51 1099.4L1116.73 1097.96C1116.3 1097.85 1116 1097.47 1116 1097.02C1116 1096.58 1116.3 1096.2 1116.73 1096.09L1122.51 1094.64C1124.05 1094.26 1125.26 1093.06 1125.64 1091.51L1127.09 1085.73C1127.2 1085.3 1127.58 1085 1128.02 1085C1128.46 1085 1128.85 1085.3 1128.96 1085.73L1130.4 1091.51C1130.79 1093.06 1131.99 1094.26 1133.53 1094.64L1139.32 1096.09C1139.75 1096.2 1140.05 1096.58 1140.05 1097.02C1140.05 1097.47 1139.75 1097.85 1139.32 1097.96L1133.53 1099.4Z" stroke="white" stroke-width="2"/>
<path d="M438.766 911.202C437.996 911.395 437.394 911.996 437.201 912.767L436.478 915.66C436.425 915.874 436.232 916.024 436.011 916.024C435.79 916.024 435.598 915.874 435.544 915.66L434.821 912.767C434.629 911.996 434.027 911.395 433.257 911.202L430.364 910.479C430.149 910.425 429.999 910.233 429.999 910.012C429.999 909.791 430.149 909.599 430.364 909.545L433.257 908.822C434.027 908.629 434.629 908.028 434.821 907.257L435.544 904.365C435.598 904.15 435.79 904 436.011 904C436.232 904 436.425 904.15 436.478 904.365L437.201 907.257C437.394 908.028 437.996 908.629 438.766 908.822L441.659 909.545C441.873 909.599 442.023 909.791 442.023 910.012C442.023 910.233 441.873 910.425 441.659 910.479L438.766 911.202Z" stroke="white" stroke-width="2"/>
</g>
<defs>
<linearGradient id="paint0_linear_7408_119227" x1="nan" y1="nan" x2="nan" y2="nan" gradientUnits="userSpaceOnUse">
<stop stop-color="white" stop-opacity="0"/>
<stop offset="1" stop-color="white"/>
</linearGradient>
<linearGradient id="paint1_linear_7408_119227" x1="nan" y1="nan" x2="nan" y2="nan" gradientUnits="userSpaceOnUse">
<stop stop-color="white" stop-opacity="0"/>
<stop offset="1" stop-color="white"/>
</linearGradient>
<linearGradient id="paint2_linear_7408_119227" x1="nan" y1="nan" x2="nan" y2="nan" gradientUnits="userSpaceOnUse">
<stop stop-color="white" stop-opacity="0"/>
<stop offset="1" stop-color="white"/>
</linearGradient>
</defs>
</svg>
