<svg width="148" height="128" viewBox="0 0 148 128" fill="none" xmlns="http://www.w3.org/2000/svg">
<path d="M116.237 114.68C116.237 120.216 114.379 124.148 111.347 126.073L111.304 126.102L110.826 126.394C107.65 128.084 103.34 127.739 98.5849 124.957L98.3789 124.837L98.173 124.713L56.9735 100.27L22.4019 79.6773L22.196 79.5529L21.9901 79.4283C10.3768 72.3933 1 55.8186 1 42.2802C1 35.1829 3.57647 30.3078 7.70456 28.2724C11.4926 26.3952 16.5833 26.9028 22.1864 30.2312C23.2831 30.8865 24.3401 31.6061 25.3519 32.3862C26.6401 28.0091 28.8287 24.6137 31.7117 22.3294C32.2108 21.9381 32.7338 21.5782 33.2777 21.2519L33.7566 20.9788C39.7093 17.6266 47.9319 18.2252 57.007 23.6224C70.5167 31.6631 82.13 48.0462 87.1776 64.6112C89.0989 64.7143 90.9603 65.315 92.5795 66.3544C99.284 70.3436 104.724 79.9023 104.724 87.7035C104.724 87.9174 104.724 88.1283 104.724 88.3358C106.919 90.6438 108.847 93.1916 110.471 95.931C114.02 101.85 116.237 108.622 116.237 114.68Z" fill="#F7F6FF" stroke="black" stroke-miterlimit="10"/>
<path d="M146.884 96.7695C146.884 102.406 144.968 106.376 141.827 108.263L141.765 108.301L141.53 108.435L111.359 126.069C114.391 124.153 116.249 120.212 116.249 114.676L129.232 107.085L146.884 96.7695Z" fill="black" stroke="black" stroke-miterlimit="10"/>
<path d="M87.6225 5.71558L56.9731 23.6263C47.874 18.2291 39.6753 17.6161 33.7227 20.9828L50.5894 11.1223L63.941 3.3163L64.0081 3.27795C69.9943 -0.299408 78.3654 0.208265 87.6225 5.71558Z" fill="#BFFFE4" stroke="black" stroke-miterlimit="10"/>
<path d="M50.5853 11.1223L33.7186 20.9827C33.5606 21.0689 33.4073 21.1599 33.2397 21.2557C32.7057 21.5831 32.1923 21.9429 31.7024 22.3332C28.829 24.6176 26.6309 28.0129 25.3426 32.3901C24.3309 31.61 23.2738 30.8904 22.1771 30.235C16.574 26.8828 11.4834 26.4038 7.69531 28.2763L37.2145 11.036L38.2107 10.4566C41.5342 8.7421 45.8251 8.87626 50.5853 11.1223Z" fill="#BFFFE4" stroke="black" stroke-miterlimit="10"/>
<path d="M146.879 96.7675L129.217 107.088L116.234 114.678C116.234 108.62 114.017 101.849 110.488 95.9343C108.863 93.1948 106.935 90.6468 104.741 88.3388C104.741 88.1313 104.741 87.9207 104.741 87.7068C104.741 79.9056 99.3053 70.3467 92.5959 66.3575C90.9768 65.3181 89.1152 64.7175 87.194 64.6144C82.1224 48.0445 70.5092 31.6662 57.0234 23.6255L87.6729 5.71484C101.183 13.7555 112.796 30.1385 117.843 46.7036C119.765 46.8067 121.626 47.4074 123.245 48.4468C129.95 52.436 135.39 61.9949 135.39 69.7961C135.39 70.0132 135.39 70.2238 135.39 70.4281C142.09 77.4248 146.879 87.8696 146.879 96.7675Z" fill="#79EFBD" stroke="black" stroke-miterlimit="10"/>
<path d="M87.2031 64.443L117.613 46.4844" stroke="black"/>
<path d="M104.914 88.6266L135.324 70.668" stroke="black"/>
<path d="M115.695 109.22L146.105 91.2617" stroke="black" stroke-width="1.5"/>
</svg>
