<svg width="410" height="929" viewBox="0 0 410 929" fill="none" xmlns="http://www.w3.org/2000/svg">
<path d="M369.622 26.9896C381.859 38.0962 366.613 41.2039 363.027 54.2675C361.424 60.0539 367.984 78.6354 360.58 83.2349C349.986 90.0199 333.383 85.1614 320.762 90.6702C311.718 94.4784 307.717 108.87 311.584 116.458C315.022 123.22 326.483 127.907 322.597 137.654C318.373 148.25 299.603 151.071 290.78 156.023C275.386 164.657 273.523 170.279 271.724 183.767C270.598 192.231 251.679 199.254 243.602 205.33C230.251 215.369 230.068 230.623 238.365 241.998C243.052 248.42 251.838 254.087 258.079 260.007C264.32 265.928 267.832 273.269 272.238 279.797C279.653 290.776 272.311 307.676 314.532 317.231C306.284 329.694 293.043 337.141 281.785 348.219C269.903 359.926 297.069 382.591 304.669 392.829C317.726 410.414 329.523 429.462 328.165 448.941C327.112 464.272 305.844 481.497 290.828 493.021C280.636 500.914 269.523 508.397 257.567 515.417C247.19 521.409 233.901 525.209 223.401 531.116C212.326 537.34 202.475 550.658 189.124 554.693C175.774 558.727 152.792 561.624 143.773 569.035C131.291 579.265 132.466 595.346 136.382 606.947C139.857 617.22 127.302 623.112 118.111 631.951C108.077 641.602 62.1181 658.02 67.2562 679.713C72.5308 701.983 109.372 700.821 120.489 716.806C125.457 723.984 106.268 734.85 102.133 747.186C93.8595 771.867 131.453 779.785 119.265 800.882C110.699 815.719 68.5166 826.069 75.8223 841.507C77.9639 846.036 92.4129 869.073 87.6282 871.836C80.5672 875.913 84.1405 878.951 81.0568 884.278C75.7457 893.491 59.5313 894.459 47.6 901.347C34.763 908.759 9.05245 920.225 0.302734 928.654C11.0839 922.43 10.68 887.69 21.4121 881.494C36.3906 872.846 0.779928 855.861 15.8931 847.136C45.3972 830.102 71.7809 808.327 81.7665 784.446C88.7174 767.716 66.2985 744.118 58.381 728.285C49.3621 710.233 31.8138 698.816 36.6231 679.577C38.4097 672.371 35.9011 665.284 38.0426 657.788C41.4812 645.911 47.6122 634.275 50.5124 622.328C52.3848 614.747 50.9775 607.194 55.5052 599.776C59.7271 592.774 68.0486 586.882 75.1951 580.82C93.3553 565.63 106.253 546.327 130.214 533.78C142.402 527.393 159.804 523.761 170.23 516.47C179.983 509.595 188.561 502.241 199.367 495.861C211.922 488.456 248.316 474.665 240.619 461.375C233.546 449.11 209.169 444.207 199.073 432.881C192.881 425.943 180.13 414.879 184.792 406.634C187.827 401.25 200.823 387.275 202.047 392.885C203.27 398.495 221.125 406.118 221.125 396.679C221.125 391.027 212.375 387.6 208.41 383.05C201.912 375.667 202.732 368.327 204.714 360.3C208.055 346.771 218.102 332.986 226.876 320.488C232.873 311.953 235.54 301.468 236.005 292.227C236.397 284.639 238.049 275.716 234.88 268.234C181.902 260.989 178.683 252.236 179.76 243.418C181.914 225.882 194.714 209.858 190.333 192.167C185.757 173.685 189.318 163.32 205.226 145.374C218.344 130.509 218.348 128.208 233.877 113.985C241.28 107.196 244.997 84.6983 254.285 78.7282C264.797 71.9668 278.76 67.4239 290.924 61.7293C301.35 56.826 323.671 50.863 316.047 41.2896C307.726 30.8331 304.177 21.394 307.224 10.1249C308.888 4.02058 327.296 -4.58637 331.554 -9.8005C393.836 -30.0033 380.727 -31.535 380.727 -38.1905C380.727 -52.8861 377.252 -67.7654 374.78 -82.3904C372.822 -93.9773 357.966 -103.063 353.022 -114.481C349.069 -123.63 361.698 -129.254 377.019 -120.408C391.386 -112.114 394.152 -102.957 400.197 -92.091C407.356 -79.2676 411.174 -69.8426 408.371 -56.2844C405.826 -43.7649 422.267 -29.8626 365.418 -3.55537C365.773 8.08104 342.431 4.98849 351.241 15.1483" fill="#F4F2FF" fill-opacity="0.05"/>
</svg>
