<svg width="426" height="885" viewBox="0 0 426 885" fill="none" xmlns="http://www.w3.org/2000/svg">
<path d="M70.3452 831.19C56.2219 851.302 28.7069 867.531 0.394531 881.528L6.38432 884.446C31.8054 886.612 30.7086 879.203 52.2037 874.491C70.4152 870.499 61.8573 854.28 73.8409 846.08C97.3639 829.982 113.465 813.044 129.163 793.408C136.989 783.619 143.495 770.828 142.187 760.068C141.413 753.705 142.304 742.73 145.554 736.714C157.421 714.743 174.141 705.066 199.923 687.423C215.148 677.004 237.217 670.818 244.669 657.582C251.841 644.844 269.135 617.067 269.89 603.681C270.241 597.444 275.915 593.32 282.72 588.663C297.34 578.658 313.365 570.302 325.64 559.032C342.048 543.968 377.133 533.567 387.421 516.883C395.548 503.705 398.389 488.381 398.274 474.374C398.124 456.227 391.266 437.876 388.61 419.787C387.388 411.469 382.488 399.794 388.625 391.84C397.863 379.866 410.684 369.137 418.372 356.67C427.856 341.291 425.391 329.891 425.416 314.169C425.442 297.591 389.623 279.657 405.343 265.146C414.079 257.081 414.88 247.765 415.954 238.523C417.059 229.02 397.958 223.625 388.407 215.982C371.028 202.076 390.687 195.83 386.331 183.314C379.401 163.403 348.241 155.449 346.571 136.65C345.097 120.07 315.558 98.1053 315.995 81.3581C316.605 57.993 399.502 47.6657 399.515 24.2031C399.521 13.681 396.505 2.29448 382.899 -5.48629C374.947 -10.0339 368.43 -13.9726 362.999 -19.6743C355.742 -27.2928 351.164 -37.1462 349.964 -45.3174C322.635 -26.6154 334.929 -2.84729 316.153 17.5813C306.107 28.5106 293.301 38.6961 283.594 49.7374C273.252 61.4999 278.301 68.6345 288.768 80.7599C300.18 89.8923 304.822 98.7356 309.72 109.821C313.06 117.383 311.878 124.494 316.678 131.956C321.802 139.923 347.06 158.096 351.278 166.24C365.446 193.593 335.085 208.311 376.204 240.648C381.497 246.299 389.579 251.461 390.812 258.068C392.045 264.677 389.062 271.012 387.281 277.506C381.499 298.598 366.156 318.236 357.48 338.959C350.349 355.994 336.672 369.645 318.288 383.451L317.748 383.857C305.014 393.418 286.085 407.63 286.721 420.256C287.052 426.824 281.882 432.89 281.503 439.42C280.843 450.773 284.142 462.012 283.003 473.476C280.819 495.451 278.289 517.706 272.405 539.46C267.851 556.295 259.403 575.518 237.389 587.85C231.687 591.044 226.47 592.036 227.134 596.557C227.729 600.613 225.057 605.466 222.598 609.147C211.796 625.313 200.117 641.215 190.906 657.731C186.296 665.998 163.219 679.286 157.984 687.44C148.088 702.853 150.531 714.857 132.396 727.267C110.707 742.109 81.3845 747.65 76.4755 767.744C73.7209 779.019 76.6889 789.276 78.9182 800.506C81.3877 812.946 78.34 819.806 70.3452 831.19Z" fill="#F4F2FF" fill-opacity="0.05"/>
</svg>
