<svg width="345" height="359" viewBox="0 0 345 359" fill="none" xmlns="http://www.w3.org/2000/svg">
<path d="M58.2128 4.67677C62.9986 9.02029 57.0361 10.2357 55.6338 15.3445C55.0069 17.6075 57.5721 24.8743 54.6767 26.6731C50.5338 29.3266 44.0404 27.4265 39.1045 29.5809C35.5679 31.0702 34.0029 36.6985 35.5152 39.666C36.86 42.3103 41.3421 44.1434 39.8224 47.9552C38.1703 52.0991 30.83 53.2022 27.3795 55.1391C21.359 58.5156 20.6304 60.7142 19.9269 65.9889C19.4866 69.299 12.0878 72.0455 8.92921 74.4217C3.70796 78.348 3.63618 84.3134 6.88092 88.762C8.71386 91.2736 12.15 93.4895 14.5907 95.805C17.0315 98.1204 18.405 100.991 20.1279 103.544C23.028 107.838 20.1566 114.447 36.6683 118.184C33.4427 123.058 28.2645 125.97 23.8617 130.303C19.2147 134.881 29.8391 143.745 32.811 147.749C37.9174 154.626 42.5309 162.075 41.9997 169.693C41.5881 175.689 33.2704 182.425 27.3983 186.931C23.4125 190.018 19.0664 192.945 14.3905 195.69C10.3322 198.033 5.13512 199.52 1.02895 201.83C-3.30215 204.264 -7.15466 209.472 -12.3759 211.05C-17.5972 212.628 -26.5848 213.761 -30.1119 216.659C-34.9934 220.66 -34.5339 226.949 -33.0025 231.486C-31.6433 235.503 -36.5535 237.807 -40.1476 241.264C-44.0719 245.038 -62.0454 251.459 -60.036 259.943C-57.9732 268.652 -43.5653 268.198 -39.218 274.449C-37.2749 277.256 -44.7794 281.506 -46.3966 286.33C-49.632 295.982 -34.9299 299.079 -39.6966 307.329C-43.0466 313.132 -59.5431 317.18 -56.686 323.217C-55.8485 324.988 -50.1977 333.998 -52.0689 335.078C-54.8303 336.672 -53.4329 337.86 -54.6389 339.944C-56.7159 343.547 -63.057 343.925 -67.7231 346.619C-72.7434 349.518 -82.7982 354.002 -86.22 357.298C-82.0038 354.864 -82.1617 341.278 -77.9646 338.855C-72.1069 335.473 -86.0334 328.831 -80.123 325.418C-68.5846 318.757 -58.2665 310.241 -54.3613 300.902C-51.643 294.359 -60.4105 285.13 -63.5069 278.938C-67.034 271.879 -73.8967 267.414 -72.0159 259.89C-71.3172 257.071 -72.2983 254.3 -71.4608 251.369C-70.116 246.724 -67.7183 242.173 -66.5841 237.501C-65.8519 234.536 -66.4022 231.582 -64.6315 228.681C-62.9804 225.943 -59.7261 223.638 -56.9312 221.268C-49.8292 215.327 -44.785 207.779 -35.4145 202.871C-30.6479 200.374 -23.8426 198.953 -19.7651 196.102C-15.9509 193.413 -12.5963 190.537 -8.37044 188.042C-3.46026 185.147 10.7726 179.753 7.76241 174.556C4.99625 169.759 -4.53697 167.841 -8.48521 163.412C-10.9068 160.699 -15.8935 156.372 -14.0702 153.148C-12.8833 151.042 -7.80085 145.577 -7.32227 147.771C-6.8437 149.965 0.138717 152.946 0.138719 149.254C0.138719 147.044 -3.28309 145.704 -4.83367 143.924C-7.37491 141.037 -7.05428 138.166 -6.27898 135.027C-4.97247 129.736 -1.04336 124.345 2.38802 119.458C4.73304 116.12 5.77635 112.02 5.9582 108.405C6.11135 105.438 6.75742 101.948 5.51792 99.0221C-15.2005 96.189 -16.4592 92.7656 -16.038 89.3173C-15.1957 82.4594 -10.1898 76.1928 -11.9031 69.2741C-13.693 62.046 -12.3004 57.9926 -6.07891 50.9744C-0.948585 45.161 -0.947367 44.261 5.12575 38.699C8.02113 36.0437 9.47473 27.2454 13.1071 24.9106C17.2181 22.2664 22.6786 20.4897 27.4357 18.2627C31.5131 16.3452 40.2423 14.0131 37.2608 10.2692C34.0065 6.17986 32.6186 2.48842 33.8103 -1.91865C34.4611 -4.30593 41.6599 -7.67192 43.3254 -9.71106C67.6824 -17.612 62.5558 -18.211 62.5558 -20.8138C62.5558 -26.5609 61.1967 -32.3799 60.23 -38.0994C59.4643 -42.6308 53.6543 -46.1841 51.7209 -50.6492C50.1751 -54.2274 55.114 -56.4267 61.1058 -52.9674C66.7242 -49.7236 67.8058 -46.1427 70.17 -41.8931C72.9696 -36.8781 74.4628 -33.1922 73.3669 -27.8899C72.3714 -22.9938 78.801 -17.5569 56.5688 -7.26873C56.7076 -2.71798 47.5788 -3.92741 51.0246 0.045861" fill="#F4F2FF" fill-opacity="0.05"/>
<path d="M-13.8544 319.184C-19.3777 327.049 -30.1382 333.396 -41.2105 338.87L-38.8681 340.011C-28.9264 340.858 -29.3554 337.961 -20.9491 336.118C-13.827 334.556 -17.1738 328.214 -12.4872 325.007C-3.28791 318.711 3.00895 312.087 9.14819 304.408C12.2088 300.58 14.7531 295.577 14.2413 291.369C13.9387 288.881 14.2874 284.589 15.5582 282.236C20.1991 273.644 26.7381 269.859 36.8208 262.959C42.775 258.885 51.4055 256.465 54.3201 251.289C57.1249 246.308 63.8882 235.445 64.1832 230.209C64.3206 227.771 66.5395 226.158 69.201 224.336C74.9185 220.424 81.1854 217.156 85.9859 212.748C92.4029 206.857 106.124 202.789 110.147 196.265C113.326 191.111 114.437 185.118 114.392 179.64C114.333 172.543 111.651 165.367 110.612 158.293C110.134 155.04 108.218 150.474 110.618 147.363C114.231 142.68 119.245 138.485 122.252 133.609C125.96 127.595 124.996 123.136 125.006 116.988C125.016 110.504 111.008 103.491 117.156 97.8158C120.573 94.6618 120.886 91.0184 121.306 87.4044C121.738 83.6876 114.268 81.578 110.533 78.5889C103.736 73.1504 111.424 70.7079 109.721 65.8131C107.011 58.0263 94.8249 54.9156 94.1715 47.564C93.5952 41.0798 82.0429 32.4898 82.214 25.9404C82.4527 16.8028 114.872 12.764 114.877 3.5883C114.879 -0.526693 113.7 -4.9797 108.379 -8.0226C105.269 -9.80108 102.72 -11.3414 100.596 -13.5712C97.758 -16.5507 95.9678 -20.4041 95.4985 -23.5997C84.8107 -16.2857 89.6187 -6.99053 82.2756 0.998646C78.3471 5.27286 73.339 9.25621 69.5425 13.5742C65.4981 18.1743 67.4725 20.9645 71.566 25.7065C76.0291 29.2779 77.8446 32.7363 79.7598 37.0715C81.0663 40.029 80.6041 42.8097 82.481 45.7281C84.4849 48.844 94.3629 55.9511 96.0124 59.1358C101.553 69.833 89.6797 75.5889 105.76 88.2351C107.83 90.4454 110.991 92.4641 111.473 95.0478C111.956 97.6326 110.789 100.11 110.093 102.649C107.831 110.898 101.831 118.578 98.4381 126.683C95.6489 133.345 90.3002 138.683 83.1109 144.082L82.8995 144.241C77.9196 147.98 70.5168 153.538 70.7656 158.476C70.8951 161.044 68.873 163.417 68.7248 165.971C68.467 170.411 69.7568 174.806 69.3114 179.289C68.4574 187.883 67.4679 196.587 65.1667 205.094C63.3859 211.678 60.0823 219.196 51.4731 224.018C49.2431 225.268 47.2026 225.656 47.4623 227.424C47.6952 229.01 46.6503 230.908 45.6882 232.347C41.4639 238.669 36.8966 244.888 33.2946 251.347C31.4916 254.58 22.4667 259.777 20.4194 262.966C16.5492 268.994 17.5044 273.688 10.4125 278.541C1.93031 284.346 -9.53712 286.513 -11.457 294.371C-12.5342 298.781 -11.3735 302.792 -10.5016 307.184C-9.53585 312.049 -10.7278 314.731 -13.8544 319.184Z" fill="#F4F2FF" fill-opacity="0.05"/>
</svg>
