<svg width="146" height="126" viewBox="0 0 146 126" fill="none" xmlns="http://www.w3.org/2000/svg">
<path d="M114.855 112.842C114.855 118.314 113.018 122.201 110.022 124.104L109.979 124.132L109.506 124.421C106.367 126.092 102.107 125.751 97.4058 123.001L97.2022 122.883L96.9987 122.76L56.2722 98.5974L22.0976 78.2412L21.894 78.1183L21.6905 77.9951C10.2106 71.0408 0.941406 54.6565 0.941406 41.2735C0.941406 34.2578 3.48829 29.4386 7.56898 27.4266C11.3136 25.5709 16.3458 26.0727 21.8845 29.3629C22.9687 30.0107 24.0135 30.722 25.0137 31.4931C26.2871 27.1663 28.4506 23.8099 31.3004 21.5518C31.7939 21.165 32.3109 20.8092 32.8485 20.4866L33.3219 20.2168C39.2062 16.903 47.3345 17.4947 56.3054 22.8299C69.6599 30.7783 81.1398 46.9733 86.1295 63.3481C88.0287 63.4501 89.8688 64.0438 91.4694 65.0713C98.0969 69.0147 103.475 78.4636 103.475 86.1753C103.475 86.3867 103.475 86.5952 103.475 86.8003C105.644 89.0818 107.55 91.6003 109.156 94.3083C112.663 100.16 114.855 106.853 114.855 112.842Z" fill="#F7F6FF" stroke="black" stroke-width="0.712183" stroke-miterlimit="10"/>
<path d="M145.148 95.1406C145.148 100.713 143.254 104.637 140.149 106.502L140.087 106.54L139.855 106.673L110.031 124.103C113.028 122.21 114.865 118.314 114.865 112.841L127.698 105.338L145.148 95.1406Z" fill="black" stroke="black" stroke-width="0.712183" stroke-miterlimit="10"/>
<path d="M86.57 5.13019L56.2725 22.8352C47.278 17.5 39.1734 16.8941 33.2891 20.2221L49.9621 10.4749L63.1605 2.75846L63.2268 2.72055C69.1443 -0.815738 77.4192 -0.313894 86.57 5.13019Z" fill="#BFFFE4" stroke="black" stroke-width="0.712183" stroke-miterlimit="10"/>
<path d="M49.9601 10.4762L33.287 20.2234C33.1308 20.3086 32.9793 20.3986 32.8136 20.4933C32.2857 20.8169 31.7782 21.1726 31.2939 21.5585C28.4535 23.8166 26.2806 27.173 25.0072 31.4998C24.007 30.7287 22.9622 30.0173 21.878 29.3695C16.3393 26.0557 11.3071 25.5823 7.5625 27.4333L36.7428 10.3909L37.7275 9.81815C41.0128 8.12338 45.2545 8.256 49.9601 10.4762Z" fill="#BFFFE4" stroke="black" stroke-width="0.712183" stroke-miterlimit="10"/>
<path d="M145.152 95.14L127.693 105.342L114.859 112.845C114.859 106.857 112.667 100.163 109.178 94.3164C107.573 91.6084 105.667 89.0896 103.498 86.8081C103.498 86.603 103.498 86.3948 103.498 86.1833C103.498 78.4717 98.1245 69.0226 91.4922 65.0792C89.8916 64.0517 88.0515 63.458 86.1522 63.3561C81.1389 46.9765 69.659 30.7862 56.3281 22.8379L86.6256 5.13281C99.9802 13.0812 111.46 29.2761 116.45 45.6509C118.349 45.7528 120.189 46.3467 121.79 47.3741C128.417 51.3175 133.795 60.7666 133.795 68.4783C133.795 68.6929 133.795 68.9011 133.795 69.1031C140.418 76.0194 145.152 86.3442 145.152 95.14Z" fill="#79EFBD" stroke="black" stroke-width="0.712183" stroke-miterlimit="10"/>
<path d="M86.1484 63.1821L116.209 45.4297" stroke="black" stroke-width="0.712183"/>
<path d="M103.664 87.0884L133.725 69.3359" stroke="black" stroke-width="0.712183"/>
<path d="M114.32 107.448L144.381 89.6953" stroke="black" stroke-width="1.06827"/>
</svg>
