<svg width="83" height="146" viewBox="0 0 83 146" fill="none" xmlns="http://www.w3.org/2000/svg">
<g clip-path="url(#clip0_565_452)">
<path d="M37.9521 116.922C18.0963 105.109 2 76.8036 2 53.6995C2 30.5955 18.0963 21.4422 37.9521 33.2552C57.8078 45.0681 73.9041 73.3739 73.9041 96.478C73.9041 119.582 57.8078 128.735 37.9521 116.922Z" fill="white" stroke="#0D0B33" stroke-width="1.28663"/>
<path d="M37.71 47.8223L52.5592 84.8459L37.71 86.4079L22.8606 67.6994L37.71 47.8223Z" fill="#070707"/>
<path d="M37.7097 103.686L22.8606 70.9508L37.71 89.6543L52.5682 88.1028L37.71 103.687L37.7097 103.686Z" fill="#070707"/>
<path d="M37.9521 33.2551C28.1321 27.4128 19.2316 26.6988 12.7431 30.2643L19.879 26.2065C33.9191 18.2225 56.6827 31.7654 70.7229 56.4554C84.763 81.1455 84.763 107.633 70.7229 115.617L63.8599 119.52C63.8604 119.515 63.8608 119.511 63.8612 119.506C70.0804 115.686 73.9041 107.739 73.9041 96.4779C73.9041 73.3739 57.8078 45.068 37.9521 33.2551Z" fill="#79EFBD" stroke="#0D0B33" stroke-width="1.28663"/>
<path d="M73.6734 91.5755L81.023 87.4991C80.9199 83.5662 80.4727 80.7268 78.9563 74.6094L71.2 78.9233C72.4454 83.1762 73.2918 87.4321 73.6734 91.5755Z" fill="#0D0B33"/>
<path d="M67.8709 69.684L75.0631 65.4756C67.3752 48.9834 61.5007 41.2235 47.8308 30.4709L40.3681 34.7855C51.8419 42.4976 61.8437 55.5973 67.8709 69.684Z" fill="#0D0B33"/>
</g>
<defs>
<clipPath id="clip0_565_452">
<rect width="83" height="146" fill="white"/>
</clipPath>
</defs>
</svg>
