<svg width="104" height="183" viewBox="0 0 104 183" fill="none" xmlns="http://www.w3.org/2000/svg">
<path d="M45.5831 142.504C22.6174 128.787 4 95.9167 4 69.0874C4 42.258 22.6174 31.6289 45.5831 45.3466C68.5488 59.0642 87.1662 91.9341 87.1662 118.763C87.1662 145.593 68.5488 156.222 45.5831 142.504Z" fill="white" stroke="#0D0B33" stroke-width="1.72736"/>
<path d="M42.25 64.1608C40.7395 63.2852 39.2908 63.1412 38.2228 63.7603L21.4454 73.4858C20.8099 73.8541 20.4922 74.6356 20.4922 75.6011C20.4922 76.5667 20.8099 77.7164 21.4454 78.8215L32.4401 97.941L32.4401 75.3753C32.4401 73.6913 33.6085 73.0033 35.0611 73.8453C41.1981 77.4027 56.1366 86.0618 58.1742 87.2429L70.1221 80.3172L42.25 64.1608Z" fill="black"/>
<path d="M32.4407 102.16L55.5445 115.552C56.9971 116.394 58.1747 115.712 58.1747 114.028L58.1747 91.4619L69.1694 110.581C69.8049 111.687 70.1226 112.836 70.1226 113.802C70.1226 114.767 69.8049 115.549 69.1695 115.917L52.3921 125.643C51.324 126.262 49.8753 126.118 48.3649 125.242L20.4927 109.086L32.4407 102.16Z" fill="black"/>
<path d="M45.5831 45.3466C34.2251 38.5623 23.9306 37.7332 16.4258 41.8736L24.6793 37.1615C40.9185 27.8901 67.2475 43.6167 83.4867 72.2878C99.7259 100.959 99.7259 131.717 83.4867 140.989L75.5488 145.521C75.5494 145.515 75.5499 145.51 75.5504 145.504C82.7436 141.068 87.1662 131.84 87.1662 118.763C87.1662 91.9341 68.5489 59.0643 45.5831 45.3466Z" fill="#79EFBD" stroke="#0D0B33" stroke-width="1.72736"/>
<path d="M86.8997 113.07L95.4004 108.337C95.2812 103.77 94.764 100.472 93.01 93.3686L84.0389 98.378C85.4794 103.317 86.4583 108.259 86.8997 113.07Z" fill="#0D0B33"/>
<path d="M80.1883 87.649L88.507 82.762C79.6151 63.6107 72.8205 54.5996 57.0095 42.1133L48.3779 47.1236C61.6488 56.0791 73.2171 71.291 80.1883 87.649Z" fill="#0D0B33"/>
</svg>
