<svg width="117" height="102" viewBox="0 0 117 102" fill="none" xmlns="http://www.w3.org/2000/svg">
<path d="M91.7971 90.6902C91.7971 95.0638 90.3292 98.1699 87.9343 99.6908L87.9003 99.7136L87.522 99.9443C85.0136 101.28 81.6085 101.007 77.8516 98.8093L77.6889 98.7147L77.5263 98.6164L44.9779 79.3061L17.6657 63.0376L17.503 62.9393L17.3404 62.8408C8.16569 57.2831 0.757812 44.1888 0.757812 33.4932C0.757812 27.8862 2.79327 24.0347 6.05454 22.4268C9.04719 20.9437 13.0689 21.3448 17.4955 23.9742C18.3619 24.492 19.1969 25.0605 19.9963 25.6768C21.014 22.2188 22.743 19.5363 25.0206 17.7317C25.4149 17.4225 25.8281 17.1382 26.2578 16.8804L26.6361 16.6647C31.3388 14.0164 37.8349 14.4893 45.0044 18.7532C55.6773 25.1054 64.852 38.0484 68.8397 51.1351C70.3575 51.2165 71.8281 51.6911 73.1073 52.5122C78.404 55.6638 82.7019 63.2153 82.7019 69.3784C82.7019 69.5474 82.7019 69.714 82.7019 69.8779C84.4357 71.7013 85.9587 73.7141 87.242 75.8783C90.0454 80.5546 91.7971 85.9042 91.7971 90.6902Z" fill="#F7F6FF" stroke="black" stroke-width="0.712183" stroke-miterlimit="10"/>
<path d="M116.003 76.5391C116.003 80.9921 114.489 84.1285 112.007 85.6192L111.958 85.6495L111.773 85.7553L87.9375 99.6858C90.3324 98.1725 91.8003 95.0587 91.8003 90.6852L102.057 84.6885L116.003 76.5391Z" fill="black" stroke="black" stroke-width="0.712183" stroke-miterlimit="10"/>
<path d="M69.1873 4.60821L44.9737 18.758C37.7853 14.4941 31.3082 14.0098 26.6055 16.6696L39.9305 8.87965L50.4786 2.71273L50.5315 2.68244C55.2607 -0.143743 61.8741 0.257327 69.1873 4.60821Z" fill="#BFFFE4" stroke="black" stroke-width="0.712183" stroke-miterlimit="10"/>
<path d="M39.9308 8.87797L26.6057 16.6679C26.4809 16.736 26.3598 16.8079 26.2274 16.8836C25.8055 17.1422 25.3999 17.4265 25.0129 17.7348C22.7429 19.5395 21.0063 22.2219 19.9886 25.6799C19.1893 25.0636 18.3542 24.4951 17.4878 23.9774C13.0612 21.329 9.03952 20.9507 6.04688 22.43L29.3676 8.8098L30.1545 8.35203C32.7802 6.99758 36.1701 7.10357 39.9308 8.87797Z" fill="#BFFFE4" stroke="black" stroke-width="0.712183" stroke-miterlimit="10"/>
<path d="M116.007 76.5426L102.054 84.6959L91.7972 90.6924C91.7972 85.9064 90.0455 80.5569 87.2571 75.8844C85.9739 73.7202 84.4509 71.7072 82.7171 69.8838C82.7171 69.7199 82.7171 69.5535 82.7171 69.3845C82.7171 63.2214 78.423 55.6697 73.1224 52.5182C71.8433 51.6971 70.3726 51.2225 68.8548 51.1411C64.8482 38.0506 55.6735 25.1114 45.0195 18.7592L69.2331 4.60938C79.906 10.9617 89.0807 23.9045 93.0684 36.9912C94.5862 37.0727 96.0569 37.5473 97.336 38.3684C102.633 41.52 106.931 49.0716 106.931 55.2347C106.931 55.4062 106.931 55.5726 106.931 55.7341C112.224 61.2616 116.007 69.5131 116.007 76.5426Z" fill="#79EFBD" stroke="black" stroke-width="0.712183" stroke-miterlimit="10"/>
<path d="M68.8555 51.0041L92.8799 36.8164" stroke="black" stroke-width="0.712183"/>
<path d="M82.8555 70.1095L106.88 55.9219" stroke="black" stroke-width="0.712183"/>
<path d="M91.3672 86.3752L115.392 72.1875" stroke="black" stroke-width="1.06827"/>
</svg>
