<svg width="118" height="221" viewBox="0 0 118 221" fill="none" xmlns="http://www.w3.org/2000/svg">
<path d="M100.81 210.475C77.975 223.695 40.9528 223.695 18.1182 210.475C-4.71647 197.255 -4.71647 175.821 18.1182 162.601C40.9528 149.381 77.975 149.381 100.81 162.601C123.644 175.821 123.644 197.255 100.81 210.475Z" fill="url(#paint0_linear_1812_47098)"/>
<path d="M98.6312 203.164C76.9984 215.653 41.9247 215.653 20.2919 203.164C10.079 197.269 4.68763 189.643 4.11781 181.921L4.07031 171.15C4.21554 179.223 9.62274 187.269 20.2919 193.429C41.9247 205.917 76.9984 205.917 98.6312 193.429C109.256 187.295 114.662 179.29 114.851 171.251V170.381C114.858 170.671 114.858 170.961 114.851 171.251V180.987C114.663 189.025 109.256 197.031 98.6312 203.164Z" fill="#79EFBD" stroke="#0D0B33" stroke-width="0.59185"/>
<path d="M98.6342 192.926C77.0014 205.414 41.9277 205.414 20.2949 192.926C-1.33789 180.437 -1.33789 160.189 20.2949 147.7C41.9277 135.212 77.0014 135.212 98.6342 147.7C120.267 160.189 120.267 180.437 98.6342 192.926Z" fill="#F7F6FF" stroke="#0D0B33" stroke-width="0.59185"/>
<path d="M69.9971 179.723C70.3196 178.267 69.6365 176.744 67.9472 175.155C72.2172 175.955 75.9079 175.259 79.0208 173.068C80.1592 172.279 80.8986 171.453 81.2397 170.587C81.5805 169.721 81.5385 168.843 81.1108 167.95C80.6845 167.057 80.0381 166.191 79.1752 165.353C78.312 164.515 77.1969 163.625 75.8304 162.683L83.0035 158.542L78.6204 156.011L71.6465 160.037C70.8875 159.599 69.7111 158.942 68.1172 158.066L75.148 154.007L70.7642 151.476L63.5911 155.617C62.9456 155.266 62.0157 154.741 60.8013 154.04L54.7956 150.539L50.1273 153.235L53.2867 155.058C54.7289 155.891 54.928 156.751 53.8845 157.638L45.7149 162.355C45.905 162.464 46.0468 162.557 46.1418 162.634L45.6862 162.371L34.2439 168.977C33.1246 169.448 32.0902 169.41 31.1412 168.862L27.9821 167.038L21.8904 169.536L27.5834 172.823C27.944 173.031 28.4607 173.335 29.1356 173.734C29.809 174.134 30.3164 174.432 30.6581 174.63L23.3997 178.82L27.7842 181.351L34.9572 177.21C35.7346 177.681 36.8828 178.355 38.4009 179.231L31.2566 183.356L35.6398 185.886L42.8982 181.696C44.5304 182.551 46.0524 183.266 47.4663 183.84C48.8809 184.415 50.3608 184.892 51.9074 185.27C53.4534 185.647 54.929 185.858 56.3332 185.902C57.7371 185.946 59.1934 185.811 60.7031 185.5C62.2111 185.187 63.7059 184.68 65.1859 183.979C68.0707 182.599 69.6742 181.181 69.9971 179.723ZM63.0795 161.072C63.2124 161.149 63.5919 161.363 64.2183 161.713C64.8451 162.064 65.3666 162.354 65.7841 162.584C66.2016 162.814 66.7282 163.146 67.3642 163.578C67.9998 164.011 68.5072 164.392 68.8868 164.72C69.2663 165.049 69.632 165.441 69.9826 165.895C70.3343 166.35 70.5236 166.766 70.5517 167.144C70.5806 167.522 70.4712 167.919 70.224 168.335C69.9777 168.752 69.5413 169.141 68.9152 169.502C68.3838 169.809 67.8145 170.039 67.2072 170.193C66.6006 170.346 65.9783 170.409 65.3431 170.382C64.7076 170.355 64.0994 170.3 63.5208 170.217C62.9425 170.135 62.3062 169.971 61.6139 169.724C60.9215 169.478 60.3285 169.256 59.8355 169.059C59.342 168.862 58.7679 168.591 58.1133 168.246C57.4586 167.9 56.9647 167.637 56.6329 167.457C56.3008 167.276 55.8597 167.021 55.3091 166.693C54.7583 166.364 54.4364 166.172 54.3413 166.117L63.0799 161.072L63.0796 161.072L63.0795 161.072ZM55.6652 179.173C55.0477 179.321 54.4359 179.406 53.8286 179.428C53.2217 179.45 52.5618 179.398 51.8507 179.272C51.1391 179.146 50.489 179 49.9011 178.836C49.312 178.672 48.6531 178.444 47.9227 178.155C47.1912 177.864 46.5705 177.598 46.0574 177.357C45.5451 177.116 44.9525 176.818 44.2784 176.462C43.6055 176.105 43.0879 175.823 42.7274 175.615C42.3668 175.407 41.9165 175.141 41.3754 174.818C40.8337 174.495 40.4877 174.29 40.3358 174.202L49.9572 168.648C50.1089 168.735 50.5689 168.99 51.3379 169.412C52.1069 169.833 52.7275 170.181 53.2019 170.455C53.6763 170.729 54.3032 171.124 55.0811 171.639C55.8591 172.153 56.4762 172.608 56.9322 173.002C57.3872 173.397 57.8329 173.856 58.2696 174.383C58.706 174.908 58.9625 175.39 59.0386 175.829C59.114 176.267 59.029 176.721 58.7821 177.193C58.5361 177.664 58.071 178.097 57.3877 178.491C56.8557 178.798 56.2825 179.025 55.6652 179.173Z" fill="#0D0B33"/>
<path d="M4.07031 174.227C7.2299 182.186 9.67176 185.845 16.3801 189.614V200.385C10.2548 196.05 6.97543 193.389 4.07031 184.228V174.227Z" fill="#0D0B33"/>
<path d="M20.9922 193.463L25.6084 195.771V206.542L20.9922 204.234V193.463Z" fill="#0D0B33"/>
<path d="M98.6312 192.578C76.9984 205.067 41.9247 205.067 20.2919 192.578C10.079 186.683 4.68763 179.057 4.11781 171.335L4.07031 160.564C4.21554 168.637 9.62274 176.683 20.2919 182.843C41.9247 195.331 76.9984 195.331 98.6312 182.843C109.256 176.709 114.662 168.704 114.851 160.665V159.795C114.858 160.085 114.858 160.375 114.851 160.665V170.401C114.663 178.439 109.256 186.445 98.6312 192.578Z" fill="#79EFBD" stroke="#0D0B33" stroke-width="0.59185"/>
<path d="M98.6342 182.34C77.0014 194.828 41.9277 194.828 20.2949 182.34C-1.33789 169.851 -1.33789 149.603 20.2949 137.115C41.9277 124.626 77.0014 124.626 98.6342 137.115C120.267 149.603 120.267 169.851 98.6342 182.34Z" fill="#F7F6FF" stroke="#0D0B33" stroke-width="0.59185"/>
<path d="M69.9932 169.137C70.3157 167.681 69.6326 166.158 67.9433 164.569C72.2133 165.369 75.904 164.673 79.0169 162.482C80.1553 161.693 80.8947 160.867 81.2358 160.001C81.5766 159.136 81.5346 158.257 81.1069 157.364C80.6806 156.471 80.0342 155.605 79.1713 154.767C78.3081 153.929 77.193 153.039 75.8265 152.097L82.9996 147.956L78.6165 145.425L71.6426 149.451C70.8836 149.013 69.7072 148.356 68.1133 147.48L75.1441 143.421L70.7603 140.89L63.5871 145.031C62.9417 144.681 62.0118 144.155 60.7974 143.454L54.7917 139.954L50.1234 142.649L53.2828 144.472C54.725 145.305 54.9241 146.165 53.8806 147.052L45.711 151.769C45.901 151.878 46.0429 151.972 46.1379 152.048L45.6823 151.785L34.24 158.391C33.1207 158.862 32.0863 158.824 31.1373 158.276L27.9782 156.452L21.8865 158.95L27.5795 162.237C27.9401 162.445 28.4568 162.749 29.1317 163.148C29.8051 163.548 30.3125 163.846 30.6542 164.044L23.3958 168.234L27.7803 170.765L34.9533 166.624C35.7307 167.095 36.8789 167.769 38.397 168.645L31.2527 172.77L35.6359 175.3L42.8943 171.11C44.5265 171.965 46.0485 172.68 47.4624 173.254C48.877 173.829 50.3569 174.306 51.9035 174.684C53.4495 175.062 54.9251 175.272 56.3293 175.316C57.7332 175.36 59.1895 175.225 60.6992 174.914C62.2072 174.601 63.702 174.094 65.182 173.393C68.0668 172.014 69.6703 170.595 69.9932 169.137ZM63.0756 150.486C63.2085 150.563 63.588 150.777 64.2144 151.127C64.8412 151.478 65.3627 151.768 65.7802 151.998C66.1977 152.228 66.7243 152.56 67.3603 152.993C67.9959 153.425 68.5033 153.806 68.8829 154.134C69.2624 154.463 69.6281 154.855 69.9787 155.309C70.3304 155.764 70.5197 156.18 70.5478 156.558C70.5766 156.936 70.4673 157.333 70.2201 157.749C69.9738 158.166 69.5374 158.555 68.9113 158.916C68.3799 159.223 67.8106 159.453 67.2033 159.607C66.5967 159.76 65.9744 159.823 65.3392 159.796C64.7037 159.769 64.0955 159.714 63.5169 159.631C62.9386 159.549 62.3023 159.385 61.61 159.138C60.9176 158.892 60.3246 158.67 59.8316 158.473C59.3381 158.276 58.764 158.005 58.1094 157.66C57.4547 157.314 56.9608 157.052 56.629 156.871C56.2969 156.69 55.8558 156.435 55.3052 156.107C54.7544 155.778 54.4325 155.586 54.3374 155.531L63.076 150.487L63.0757 150.486L63.0756 150.486ZM55.6613 168.587C55.0438 168.735 54.432 168.82 53.8247 168.842C53.2178 168.864 52.5578 168.812 51.8468 168.686C51.1351 168.56 50.4851 168.414 49.8972 168.25C49.3081 168.086 48.6491 167.858 47.9188 167.569C47.1873 167.278 46.5666 167.012 46.0535 166.771C45.5412 166.53 44.9486 166.232 44.2745 165.876C43.6016 165.52 43.0839 165.237 42.7235 165.029C42.3629 164.821 41.9126 164.555 41.3715 164.232C40.8298 163.909 40.4838 163.704 40.3319 163.616L49.9533 158.062C50.105 158.149 50.565 158.404 51.334 158.826C52.103 159.248 52.7235 159.596 53.198 159.869C53.6724 160.143 54.2993 160.538 55.0772 161.053C55.8552 161.567 56.4723 162.022 56.9283 162.416C57.3833 162.811 57.829 163.27 58.2657 163.797C58.7021 164.322 58.9586 164.805 59.0347 165.243C59.1101 165.681 59.0251 166.136 58.7782 166.607C58.5322 167.078 58.0671 167.511 57.3838 167.905C56.8518 168.212 56.2786 168.439 55.6613 168.587Z" fill="#0D0B33"/>
<path d="M4.07031 163.641C7.2299 171.6 9.67176 175.259 16.3801 179.028V189.799C10.2548 185.464 6.97543 182.803 4.07031 173.642V163.641Z" fill="#0D0B33"/>
<path d="M20.9961 182.877L25.6123 185.185V195.956L20.9961 193.648V182.877Z" fill="#0D0B33"/>
<path d="M98.6312 181.993C76.9984 194.481 41.9247 194.481 20.2919 181.993C10.079 176.097 4.68763 168.471 4.11781 160.749L4.07031 149.978C4.21554 158.051 9.62274 166.097 20.2919 172.257C41.9247 184.745 76.9984 184.745 98.6312 172.257C109.256 166.123 114.662 158.118 114.851 150.079V149.209C114.858 149.499 114.858 149.789 114.851 150.079V159.815C114.663 167.853 109.256 175.859 98.6312 181.993Z" fill="#79EFBD" stroke="#0D0B33" stroke-width="0.59185"/>
<path d="M98.6342 171.754C77.0014 184.242 41.9277 184.242 20.2949 171.754C-1.33789 159.265 -1.33789 139.017 20.2949 126.529C41.9277 114.04 77.0014 114.04 98.6342 126.529C120.267 139.017 120.267 159.265 98.6342 171.754Z" fill="#F7F6FF" stroke="#0D0B33" stroke-width="0.59185"/>
<path d="M69.9932 158.552C70.3157 157.095 69.6326 155.572 67.9433 153.983C72.2133 154.783 75.904 154.087 79.0169 151.896C80.1553 151.107 80.8947 150.281 81.2358 149.415C81.5766 148.55 81.5346 147.671 81.1069 146.778C80.6806 145.885 80.0342 145.019 79.1713 144.181C78.3081 143.343 77.193 142.453 75.8265 141.511L82.9996 137.37L78.6165 134.84L71.6426 138.866C70.8836 138.427 69.7072 137.77 68.1133 136.894L75.1441 132.835L70.7603 130.304L63.5871 134.445C62.9417 134.095 62.0118 133.569 60.7974 132.868L54.7917 129.368L50.1234 132.063L53.2828 133.887C54.725 134.719 54.9241 135.579 53.8806 136.466L45.711 141.183C45.901 141.292 46.0429 141.386 46.1379 141.462L45.6823 141.199L34.24 147.805C33.1207 148.276 32.0863 148.238 31.1373 147.69L27.9782 145.866L21.8865 148.364L27.5795 151.651C27.9401 151.859 28.4568 152.163 29.1317 152.562C29.8051 152.962 30.3125 153.26 30.6542 153.458L23.3958 157.648L27.7803 160.179L34.9533 156.038C35.7307 156.509 36.8789 157.183 38.397 158.059L31.2527 162.184L35.6359 164.714L42.8943 160.524C44.5265 161.379 46.0485 162.094 47.4624 162.668C48.877 163.243 50.3569 163.72 51.9035 164.098C53.4495 164.476 54.9251 164.686 56.3293 164.73C57.7332 164.774 59.1895 164.64 60.6992 164.328C62.2072 164.015 63.702 163.508 65.182 162.807C68.0668 161.428 69.6703 160.009 69.9932 158.552ZM63.0756 139.9C63.2085 139.977 63.588 140.191 64.2144 140.541C64.8412 140.892 65.3627 141.182 65.7802 141.412C66.1977 141.642 66.7243 141.974 67.3603 142.407C67.9959 142.839 68.5033 143.22 68.8829 143.548C69.2624 143.877 69.6281 144.269 69.9787 144.723C70.3304 145.178 70.5197 145.594 70.5478 145.972C70.5766 146.35 70.4673 146.747 70.2201 147.163C69.9738 147.58 69.5374 147.969 68.9113 148.33C68.3799 148.637 67.8106 148.867 67.2033 149.021C66.5967 149.174 65.9744 149.237 65.3392 149.21C64.7037 149.183 64.0955 149.128 63.5169 149.045C62.9386 148.963 62.3023 148.799 61.61 148.552C60.9176 148.306 60.3246 148.084 59.8316 147.887C59.3381 147.69 58.764 147.419 58.1094 147.074C57.4547 146.728 56.9608 146.466 56.629 146.285C56.2969 146.104 55.8558 145.849 55.3052 145.521C54.7544 145.192 54.4325 145 54.3374 144.945L63.076 139.901L63.0757 139.9L63.0756 139.9ZM55.6613 158.001C55.0438 158.149 54.432 158.234 53.8247 158.256C53.2178 158.278 52.5578 158.226 51.8468 158.1C51.1351 157.974 50.4851 157.828 49.8972 157.664C49.3081 157.5 48.6491 157.272 47.9188 156.983C47.1873 156.692 46.5666 156.426 46.0535 156.185C45.5412 155.944 44.9486 155.646 44.2745 155.29C43.6016 154.934 43.0839 154.651 42.7235 154.443C42.3629 154.235 41.9126 153.969 41.3715 153.646C40.8298 153.323 40.4838 153.118 40.3319 153.03L49.9533 147.476C50.105 147.563 50.565 147.818 51.334 148.24C52.103 148.662 52.7235 149.01 53.198 149.284C53.6724 149.557 54.2993 149.952 55.0772 150.467C55.8552 150.981 56.4723 151.436 56.9283 151.83C57.3833 152.225 57.829 152.685 58.2657 153.211C58.7021 153.736 58.9586 154.219 59.0347 154.657C59.1101 155.095 59.0251 155.55 58.7782 156.021C58.5322 156.492 58.0671 156.925 57.3838 157.319C56.8518 157.626 56.2786 157.853 55.6613 158.001Z" fill="#0D0B33"/>
<path d="M4.07031 153.055C7.2299 161.015 9.67176 164.673 16.3801 168.442V179.213C10.2548 174.878 6.97543 172.217 4.07031 163.056V153.055Z" fill="#0D0B33"/>
<path d="M20.9961 172.291L25.6123 174.599V185.37L20.9961 183.062V172.291Z" fill="#0D0B33"/>
<path d="M98.6312 171.407C76.9984 183.895 41.9247 183.895 20.2919 171.407C10.079 165.511 4.68763 157.885 4.11781 150.164L4.07031 139.392C4.21554 147.465 9.62274 155.512 20.2919 161.671C41.9247 174.159 76.9984 174.159 98.6312 161.671C109.256 155.537 114.662 147.532 114.851 139.493V138.623C114.858 138.913 114.858 139.203 114.851 139.493V149.229C114.663 157.267 109.256 165.273 98.6312 171.407Z" fill="#79EFBD" stroke="#0D0B33" stroke-width="0.59185"/>
<path d="M98.6342 161.168C77.0014 173.657 41.9277 173.657 20.2949 161.168C-1.33789 148.679 -1.33789 128.431 20.2949 115.943C41.9277 103.454 77.0014 103.454 98.6342 115.943C120.267 128.431 120.267 148.679 98.6342 161.168Z" fill="#F7F6FF" stroke="#0D0B33" stroke-width="0.59185"/>
<path d="M69.9932 147.966C70.3157 146.509 69.6326 144.986 67.9433 143.398C72.2133 144.197 75.904 143.501 79.0169 141.31C80.1553 140.521 80.8947 139.695 81.2358 138.829C81.5766 137.964 81.5346 137.085 81.1069 136.192C80.6806 135.299 80.0342 134.433 79.1713 133.595C78.3081 132.757 77.193 131.867 75.8265 130.925L82.9996 126.784L78.6165 124.254L71.6426 128.28C70.8836 127.841 69.7072 127.184 68.1133 126.308L75.1441 122.249L70.7603 119.718L63.5871 123.859C62.9417 123.509 62.0118 122.983 60.7974 122.282L54.7917 118.782L50.1234 121.477L53.2828 123.301C54.725 124.133 54.9241 124.993 53.8806 125.88L45.711 130.597C45.901 130.706 46.0429 130.8 46.1379 130.876L45.6823 130.613L34.24 137.219C33.1207 137.69 32.0863 137.652 31.1373 137.104L27.9782 135.28L21.8865 137.778L27.5795 141.065C27.9401 141.273 28.4568 141.577 29.1317 141.976C29.8051 142.376 30.3125 142.674 30.6542 142.872L23.3958 147.062L27.7803 149.593L34.9533 145.452C35.7307 145.923 36.8789 146.597 38.397 147.473L31.2527 151.598L35.6359 154.128L42.8943 149.938C44.5265 150.793 46.0485 151.508 47.4624 152.082C48.877 152.657 50.3569 153.134 51.9035 153.512C53.4495 153.89 54.9251 154.1 56.3293 154.144C57.7332 154.188 59.1895 154.054 60.6992 153.742C62.2072 153.429 63.702 152.923 65.182 152.221C68.0668 150.842 69.6703 149.423 69.9932 147.966ZM63.0756 129.315C63.2085 129.391 63.588 129.605 64.2144 129.955C64.8412 130.306 65.3627 130.596 65.7802 130.826C66.1977 131.056 66.7243 131.388 67.3603 131.821C67.9959 132.253 68.5033 132.634 68.8829 132.963C69.2624 133.291 69.6281 133.683 69.9787 134.137C70.3304 134.592 70.5197 135.008 70.5478 135.386C70.5766 135.764 70.4673 136.161 70.2201 136.577C69.9738 136.994 69.5374 137.383 68.9113 137.744C68.3799 138.051 67.8106 138.281 67.2033 138.435C66.5967 138.588 65.9744 138.651 65.3392 138.624C64.7037 138.597 64.0955 138.542 63.5169 138.459C62.9386 138.377 62.3023 138.213 61.61 137.966C60.9176 137.72 60.3246 137.498 59.8316 137.301C59.3381 137.104 58.764 136.833 58.1094 136.488C57.4547 136.142 56.9608 135.88 56.629 135.699C56.2969 135.518 55.8558 135.263 55.3052 134.935C54.7544 134.606 54.4325 134.414 54.3374 134.359L63.076 129.315L63.0757 129.314L63.0756 129.315ZM55.6613 147.415C55.0438 147.563 54.432 147.648 53.8247 147.67C53.2178 147.692 52.5578 147.64 51.8468 147.514C51.1351 147.388 50.4851 147.243 49.8972 147.078C49.3081 146.914 48.6491 146.686 47.9188 146.397C47.1873 146.106 46.5666 145.84 46.0535 145.599C45.5412 145.358 44.9486 145.06 44.2745 144.704C43.6016 144.348 43.0839 144.066 42.7235 143.857C42.3629 143.649 41.9126 143.383 41.3715 143.06C40.8298 142.737 40.4838 142.532 40.3319 142.444L49.9533 136.89C50.105 136.977 50.565 137.232 51.334 137.654C52.103 138.076 52.7235 138.424 53.198 138.698C53.6724 138.971 54.2993 139.366 55.0772 139.881C55.8552 140.395 56.4723 140.85 56.9283 141.244C57.3833 141.639 57.829 142.099 58.2657 142.625C58.7021 143.151 58.9586 143.633 59.0347 144.071C59.1101 144.51 59.0251 144.964 58.7782 145.435C58.5322 145.906 58.0671 146.339 57.3838 146.733C56.8518 147.04 56.2786 147.267 55.6613 147.415Z" fill="#0D0B33"/>
<path d="M4.07031 142.469C7.2299 150.429 9.67176 154.087 16.3801 157.856V168.627C10.2548 164.292 6.97543 161.632 4.07031 152.47V142.469Z" fill="#0D0B33"/>
<path d="M20.9961 161.705L25.6123 164.013V174.784L20.9961 172.476V161.705Z" fill="#0D0B33"/>
<path d="M98.6312 160.825C76.9984 173.313 41.9247 173.313 20.2919 160.825C10.079 154.929 4.68763 147.303 4.11781 139.581L4.07031 128.81C4.21554 136.883 9.62274 144.93 20.2919 151.089C41.9247 163.577 76.9984 163.577 98.6312 151.089C109.256 144.955 114.662 136.95 114.851 128.911V128.041C114.858 128.331 114.858 128.621 114.851 128.911V138.647C114.663 146.685 109.256 154.691 98.6312 160.825Z" fill="#79EFBD" stroke="#0D0B33" stroke-width="0.59185"/>
<path d="M98.6342 150.586C77.0014 163.075 41.9277 163.075 20.2949 150.586C-1.33789 138.097 -1.33789 117.849 20.2949 105.361C41.9277 92.872 77.0014 92.872 98.6342 105.361C120.267 117.849 120.267 138.097 98.6342 150.586Z" fill="#F7F6FF" stroke="#0D0B33" stroke-width="0.59185"/>
<path d="M69.9932 137.385C70.3157 135.929 69.6326 134.406 67.9433 132.817C72.2133 133.617 75.904 132.921 79.0169 130.73C80.1553 129.941 80.8947 129.115 81.2358 128.249C81.5766 127.384 81.5346 126.505 81.1069 125.612C80.6806 124.719 80.0342 123.853 79.1713 123.015C78.3081 122.177 77.193 121.287 75.8265 120.345L82.9996 116.204L78.6165 113.674L71.6426 117.7C70.8836 117.261 69.7072 116.604 68.1133 115.728L75.1441 111.669L70.7603 109.138L63.5871 113.279C62.9417 112.929 62.0118 112.403 60.7974 111.702L54.7917 108.202L50.1234 110.897L53.2828 112.721C54.725 113.553 54.9241 114.413 53.8806 115.3L45.711 120.017C45.901 120.126 46.0429 120.22 46.1379 120.296L45.6823 120.033L34.24 126.639C33.1207 127.11 32.0863 127.072 31.1373 126.524L27.9782 124.7L21.8865 127.198L27.5795 130.485C27.9401 130.693 28.4568 130.997 29.1317 131.396C29.8051 131.796 30.3125 132.094 30.6542 132.292L23.3958 136.482L27.7803 139.013L34.9533 134.872C35.7307 135.343 36.8789 136.017 38.397 136.893L31.2527 141.018L35.6359 143.548L42.8943 139.358C44.5265 140.213 46.0485 140.928 47.4624 141.502C48.877 142.077 50.3569 142.554 51.9035 142.932C53.4495 143.31 54.9251 143.52 56.3293 143.564C57.7332 143.608 59.1895 143.474 60.6992 143.162C62.2072 142.849 63.702 142.342 65.182 141.641C68.0668 140.262 69.6703 138.843 69.9932 137.385ZM63.0756 118.734C63.2085 118.811 63.588 119.025 64.2144 119.375C64.8412 119.726 65.3627 120.016 65.7802 120.246C66.1977 120.476 66.7243 120.808 67.3603 121.241C67.9959 121.673 68.5033 122.054 68.8829 122.382C69.2624 122.711 69.6281 123.103 69.9787 123.557C70.3304 124.012 70.5197 124.428 70.5478 124.806C70.5766 125.184 70.4673 125.581 70.2201 125.997C69.9738 126.414 69.5374 126.803 68.9113 127.164C68.3799 127.471 67.8106 127.701 67.2033 127.855C66.5967 128.008 65.9744 128.071 65.3392 128.044C64.7037 128.017 64.0955 127.962 63.5169 127.879C62.9386 127.797 62.3023 127.633 61.61 127.386C60.9176 127.14 60.3246 126.918 59.8316 126.721C59.3381 126.524 58.764 126.253 58.1094 125.908C57.4547 125.562 56.9608 125.3 56.629 125.119C56.2969 124.938 55.8558 124.683 55.3052 124.355C54.7544 124.026 54.4325 123.834 54.3374 123.779L63.076 118.735L63.0757 118.734L63.0756 118.734ZM55.6613 136.835C55.0438 136.983 54.432 137.068 53.8247 137.09C53.2178 137.112 52.5578 137.06 51.8468 136.934C51.1351 136.808 50.4851 136.662 49.8972 136.498C49.3081 136.334 48.6491 136.106 47.9188 135.817C47.1873 135.526 46.5666 135.26 46.0535 135.019C45.5412 134.778 44.9486 134.48 44.2745 134.124C43.6016 133.768 43.0839 133.485 42.7235 133.277C42.3629 133.069 41.9126 132.803 41.3715 132.48C40.8298 132.157 40.4838 131.952 40.3319 131.864L49.9533 126.31C50.105 126.397 50.565 126.652 51.334 127.074C52.103 127.496 52.7235 127.844 53.198 128.117C53.6724 128.391 54.2993 128.786 55.0772 129.301C55.8552 129.815 56.4723 130.27 56.9283 130.664C57.3833 131.059 57.829 131.518 58.2657 132.045C58.7021 132.57 58.9586 133.053 59.0347 133.491C59.1101 133.929 59.0251 134.384 58.7782 134.855C58.5322 135.326 58.0671 135.759 57.3838 136.153C56.8518 136.46 56.2786 136.687 55.6613 136.835Z" fill="#0D0B33"/>
<path d="M4.07031 131.887C7.2299 139.847 9.67176 143.505 16.3801 147.274V158.045C10.2548 153.71 6.97543 151.049 4.07031 141.888V131.887Z" fill="#0D0B33"/>
<path d="M20.9961 151.123L25.6123 153.431V164.202L20.9961 161.894V151.123Z" fill="#0D0B33"/>
<path d="M98.6312 150.237C76.9984 162.725 41.9247 162.725 20.2919 150.237C10.079 144.341 4.68763 136.715 4.11781 128.994L4.07031 118.222C4.21554 126.295 9.62274 134.342 20.2919 140.501C41.9247 152.99 76.9984 152.99 98.6312 140.501C109.256 134.367 114.662 126.362 114.851 118.323V117.453C114.858 117.743 114.858 118.033 114.851 118.323V128.059C114.663 136.098 109.256 144.103 98.6312 150.237Z" fill="#79EFBD" stroke="#0D0B33" stroke-width="0.59185"/>
<path d="M98.6342 139.998C77.0014 152.487 41.9277 152.487 20.2949 139.998C-1.33789 127.509 -1.33789 107.261 20.2949 94.7727C41.9277 82.2841 77.0014 82.2841 98.6342 94.7727C120.267 107.261 120.267 127.509 98.6342 139.998Z" fill="#F7F6FF" stroke="#0D0B33" stroke-width="0.59185"/>
<path d="M69.9932 126.796C70.3157 125.339 69.6326 123.816 67.9433 122.228C72.2133 123.027 75.904 122.331 79.0169 120.14C80.1553 119.352 80.8947 118.525 81.2358 117.66C81.5766 116.794 81.5346 115.915 81.1069 115.022C80.6806 114.129 80.0342 113.263 79.1713 112.425C78.3081 111.588 77.193 110.697 75.8265 109.755L82.9996 105.614L78.6165 103.084L71.6426 107.11C70.8836 106.672 69.7072 106.014 68.1133 105.138L75.1441 101.079L70.7603 98.5483L63.5871 102.689C62.9417 102.339 62.0118 101.813 60.7974 101.112L54.7917 97.6118L50.1234 100.307L53.2828 102.131C54.725 102.963 54.9241 103.823 53.8806 104.711L45.711 109.427C45.901 109.537 46.0429 109.63 46.1379 109.706L45.6823 109.443L34.24 116.049C33.1207 116.52 32.0863 116.482 31.1373 115.934L27.9782 114.11L21.8865 116.608L27.5795 119.895C27.9401 120.103 28.4568 120.407 29.1317 120.806C29.8051 121.206 30.3125 121.505 30.6542 121.702L23.3958 125.892L27.7803 128.423L34.9533 124.282C35.7307 124.753 36.8789 125.427 38.397 126.303L31.2527 130.428L35.6359 132.958L42.8943 128.768C44.5265 129.623 46.0485 130.338 47.4624 130.912C48.877 131.487 50.3569 131.964 51.9035 132.342C53.4495 132.72 54.9251 132.93 56.3293 132.974C57.7332 133.018 59.1895 132.884 60.6992 132.572C62.2072 132.259 63.702 131.753 65.182 131.051C68.0668 129.672 69.6703 128.253 69.9932 126.796ZM63.0756 108.145C63.2085 108.221 63.588 108.435 64.2144 108.785C64.8412 109.136 65.3627 109.426 65.7802 109.656C66.1977 109.886 66.7243 110.218 67.3603 110.651C67.9959 111.083 68.5033 111.464 68.8829 111.793C69.2624 112.121 69.6281 112.513 69.9787 112.967C70.3304 113.422 70.5197 113.838 70.5478 114.216C70.5766 114.594 70.4673 114.991 70.2201 115.407C69.9738 115.824 69.5374 116.213 68.9113 116.574C68.3799 116.881 67.8106 117.111 67.2033 117.265C66.5967 117.418 65.9744 117.481 65.3392 117.454C64.7037 117.427 64.0955 117.372 63.5169 117.289C62.9386 117.207 62.3023 117.043 61.61 116.796C60.9176 116.55 60.3246 116.328 59.8316 116.131C59.3381 115.934 58.764 115.663 58.1094 115.318C57.4547 114.973 56.9608 114.71 56.629 114.529C56.2969 114.348 55.8558 114.094 55.3052 113.765C54.7544 113.436 54.4325 113.244 54.3374 113.19L63.076 108.145L63.0757 108.145L63.0756 108.145ZM55.6613 126.245C55.0438 126.393 54.432 126.478 53.8247 126.5C53.2178 126.522 52.5578 126.47 51.8468 126.344C51.1351 126.218 50.4851 126.073 49.8972 125.909C49.3081 125.744 48.6491 125.517 47.9188 125.227C47.1873 124.936 46.5666 124.67 46.0535 124.429C45.5412 124.188 44.9486 123.89 44.2745 123.534C43.6016 123.178 43.0839 122.896 42.7235 122.688C42.3629 122.479 41.9126 122.213 41.3715 121.89C40.8298 121.567 40.4838 121.362 40.3319 121.274L49.9533 115.72C50.105 115.807 50.565 116.062 51.334 116.484C52.103 116.906 52.7235 117.254 53.198 117.528C53.6724 117.802 54.2993 118.196 55.0772 118.711C55.8552 119.225 56.4723 119.68 56.9283 120.075C57.3833 120.469 57.829 120.929 58.2657 121.455C58.7021 121.981 58.9586 122.463 59.0347 122.901C59.1101 123.34 59.0251 123.794 58.7782 124.265C58.5322 124.736 58.0671 125.169 57.3838 125.563C56.8518 125.87 56.2786 126.097 55.6613 126.245Z" fill="#0D0B33"/>
<path d="M4.07031 121.299C7.2299 129.259 9.67176 132.917 16.3801 136.686V147.457C10.2548 143.122 6.97543 140.462 4.07031 131.301V121.299Z" fill="#0D0B33"/>
<path d="M20.9961 140.535L25.6123 142.843V153.614L20.9961 151.306V140.535Z" fill="#0D0B33"/>
<path d="M98.6312 139.653C76.9984 152.141 41.9247 152.141 20.2919 139.653C10.079 133.757 4.68763 126.131 4.11781 118.41L4.07031 107.639C4.21554 115.711 9.62274 123.758 20.2919 129.917C41.9247 142.406 76.9984 142.406 98.6312 129.917C109.256 123.783 114.662 115.778 114.851 107.739V106.869C114.858 107.159 114.858 107.449 114.851 107.739V117.475C114.663 125.514 109.256 133.519 98.6312 139.653Z" fill="#79EFBD" stroke="#0D0B33" stroke-width="0.59185"/>
<path d="M98.6342 129.414C77.0014 141.903 41.9277 141.903 20.2949 129.414C-1.33789 116.925 -1.33789 96.6773 20.2949 84.1887C41.9277 71.7001 77.0014 71.7001 98.6342 84.1887C120.267 96.6773 120.267 116.925 98.6342 129.414Z" fill="#F7F6FF" stroke="#0D0B33" stroke-width="0.59185"/>
<path d="M69.9932 116.212C70.3157 114.755 69.6326 113.232 67.9433 111.644C72.2133 112.443 75.904 111.747 79.0169 109.556C80.1553 108.768 80.8947 107.941 81.2358 107.076C81.5766 106.21 81.5346 105.331 81.1069 104.438C80.6806 103.545 80.0342 102.679 79.1713 101.841C78.3081 101.004 77.193 100.113 75.8265 99.1712L82.9996 95.0301L78.6165 92.4997L71.6426 96.5257C70.8836 96.0875 69.7072 95.4302 68.1133 94.5539L75.1441 90.4951L70.7603 87.9643L63.5871 92.1054C62.9417 91.7548 62.0118 91.2291 60.7974 90.528L54.7917 87.0278L50.1234 89.7228L53.2828 91.5467C54.725 92.3793 54.9241 93.2394 53.8806 94.1266L45.711 98.8429C45.901 98.9526 46.0429 99.0457 46.1379 99.1225L45.6823 98.8594L34.24 105.465C33.1207 105.936 32.0863 105.898 31.1373 105.35L27.9782 103.526L21.8865 106.024L27.5795 109.311C27.9401 109.519 28.4568 109.823 29.1317 110.222C29.8051 110.622 30.3125 110.921 30.6542 111.118L23.3958 115.308L27.7803 117.839L34.9533 113.698C35.7307 114.169 36.8789 114.843 38.397 115.719L31.2527 119.844L35.6359 122.374L42.8943 118.184C44.5265 119.039 46.0485 119.754 47.4624 120.328C48.877 120.903 50.3569 121.38 51.9035 121.758C53.4495 122.136 54.9251 122.346 56.3293 122.39C57.7332 122.434 59.1895 122.3 60.6992 121.988C62.2072 121.675 63.702 121.169 65.182 120.467C68.0668 119.088 69.6703 117.669 69.9932 116.212ZM63.0756 97.5606C63.2085 97.6373 63.588 97.8509 64.2144 98.2015C64.8412 98.552 65.3627 98.8423 65.7802 99.0723C66.1977 99.3024 66.7243 99.6339 67.3603 100.067C67.9959 100.499 68.5033 100.88 68.8829 101.209C69.2624 101.537 69.6281 101.929 69.9787 102.383C70.3304 102.838 70.5197 103.254 70.5478 103.632C70.5766 104.01 70.4673 104.407 70.2201 104.823C69.9738 105.24 69.5374 105.629 68.9113 105.99C68.3799 106.297 67.8106 106.527 67.2033 106.681C66.5967 106.834 65.9744 106.897 65.3392 106.87C64.7037 106.843 64.0955 106.788 63.5169 106.706C62.9386 106.623 62.3023 106.459 61.61 106.212C60.9176 105.966 60.3246 105.744 59.8316 105.547C59.3381 105.35 58.764 105.079 58.1094 104.734C57.4547 104.389 56.9608 104.126 56.629 103.945C56.2969 103.764 55.8558 103.51 55.3052 103.181C54.7544 102.852 54.4325 102.66 54.3374 102.606L63.076 97.5607L63.0757 97.5606L63.0756 97.5606ZM55.6613 115.661C55.0438 115.809 54.432 115.894 53.8247 115.916C53.2178 115.938 52.5578 115.886 51.8468 115.76C51.1351 115.634 50.4851 115.489 49.8972 115.325C49.3081 115.16 48.6491 114.933 47.9188 114.643C47.1873 114.352 46.5666 114.086 46.0535 113.845C45.5412 113.604 44.9486 113.306 44.2745 112.95C43.6016 112.594 43.0839 112.312 42.7235 112.104C42.3629 111.895 41.9126 111.629 41.3715 111.306C40.8298 110.983 40.4838 110.778 40.3319 110.69L49.9533 105.136C50.105 105.223 50.565 105.478 51.334 105.9C52.103 106.322 52.7235 106.67 53.198 106.944C53.6724 107.218 54.2993 107.612 55.0772 108.127C55.8552 108.641 56.4723 109.096 56.9283 109.491C57.3833 109.885 57.829 110.345 58.2657 110.871C58.7021 111.397 58.9586 111.879 59.0347 112.317C59.1101 112.756 59.0251 113.21 58.7782 113.681C58.5322 114.152 58.0671 114.585 57.3838 114.979C56.8518 115.286 56.2786 115.513 55.6613 115.661Z" fill="#0D0B33"/>
<path d="M4.07031 110.715C7.2299 118.675 9.67176 122.333 16.3801 126.102V136.873C10.2548 132.538 6.97543 129.878 4.07031 120.717V110.715Z" fill="#0D0B33"/>
<path d="M20.9961 129.951L25.6123 132.259V143.03L20.9961 140.722V129.951Z" fill="#0D0B33"/>
<path d="M98.6312 129.067C76.9984 141.555 41.9247 141.555 20.2919 129.067C10.079 123.171 4.68763 115.546 4.11781 107.824L4.07031 97.0526C4.21554 105.125 9.62274 113.172 20.2919 119.331C41.9247 131.82 76.9984 131.82 98.6312 119.331C109.256 113.197 114.662 105.192 114.851 97.1535V96.2832C114.858 96.5733 114.858 96.8634 114.851 97.1535V106.889C114.663 114.928 109.256 122.933 98.6312 129.067Z" fill="#79EFBD" stroke="#0D0B33" stroke-width="0.59185"/>
<path d="M98.6342 118.828C77.0014 131.317 41.9277 131.317 20.2949 118.828C-1.33789 106.339 -1.33789 86.0914 20.2949 73.6028C41.9277 61.1142 77.0014 61.1142 98.6342 73.6028C120.267 86.0914 120.267 106.339 98.6342 118.828Z" fill="#F7F6FF" stroke="#0D0B33" stroke-width="0.59185"/>
<path d="M69.9932 105.626C70.3157 104.169 69.6326 102.646 67.9433 101.058C72.2133 101.857 75.904 101.162 79.0169 98.9706C80.1553 98.1816 80.8947 97.3551 81.2358 96.4897C81.5766 95.6238 81.5346 94.7453 81.1069 93.8521C80.6806 92.959 80.0342 92.0933 79.1713 91.2555C78.3081 90.4176 77.193 89.5273 75.8265 88.5852L82.9996 84.4442L78.6165 81.9138L71.6426 85.9398C70.8836 85.5016 69.7072 84.8443 68.1133 83.968L75.1441 79.9091L70.7603 77.3784L63.5871 81.5194C62.9417 81.1688 62.0118 80.6432 60.7974 79.9421L54.7917 76.4418L50.1234 79.1369L53.2828 80.9608C54.725 81.7934 54.9241 82.6534 53.8806 83.5406L45.711 88.2569C45.901 88.3666 46.0429 88.4598 46.1379 88.5365L45.6823 88.2735L34.24 94.8792C33.1207 95.3502 32.0863 95.3121 31.1373 94.7643L27.9782 92.9405L21.8865 95.4383L27.5795 98.7248C27.9401 98.933 28.4568 99.2369 29.1317 99.6364C29.8051 100.036 30.3125 100.335 30.6542 100.532L23.3958 104.722L27.7803 107.253L34.9533 103.112C35.7307 103.584 36.8789 104.257 38.397 105.134L31.2527 109.258L35.6359 111.788L42.8943 107.598C44.5265 108.453 46.0485 109.168 47.4624 109.742C48.877 110.317 50.3569 110.794 51.9035 111.172C53.4495 111.55 54.9251 111.76 56.3293 111.804C57.7332 111.848 59.1895 111.714 60.6992 111.402C62.2072 111.089 63.702 110.583 65.182 109.881C68.0668 108.502 69.6703 107.083 69.9932 105.626ZM63.0756 86.9747C63.2085 87.0514 63.588 87.265 64.2144 87.6155C64.8412 87.9661 65.3627 88.2563 65.7802 88.4863C66.1977 88.7165 66.7243 89.0479 67.3603 89.4808C67.9959 89.9135 68.5033 90.2942 68.8829 90.6227C69.2624 90.9512 69.6281 91.3431 69.9787 91.7975C70.3304 92.2523 70.5197 92.6685 70.5478 93.0462C70.5766 93.4243 70.4673 93.8215 70.2201 94.2375C69.9738 94.654 69.5374 95.0429 68.9113 95.4043C68.3799 95.7111 67.8106 95.9413 67.2033 96.0949C66.5967 96.2485 65.9744 96.3112 65.3392 96.2841C64.7037 96.2569 64.0955 96.2019 63.5169 96.1196C62.9386 96.0375 62.3023 95.873 61.61 95.6265C60.9176 95.3803 60.3246 95.1584 59.8316 94.9613C59.3381 94.7641 58.764 94.4931 58.1094 94.1479C57.4547 93.8026 56.9608 93.5398 56.629 93.3591C56.2969 93.1782 55.8558 92.9236 55.3052 92.5949C54.7544 92.2661 54.4325 92.0745 54.3374 92.0196L63.076 86.9748L63.0757 86.9746L63.0756 86.9747ZM55.6613 105.075C55.0438 105.223 54.432 105.308 53.8247 105.331C53.2178 105.352 52.5578 105.3 51.8468 105.174C51.1351 105.048 50.4851 104.903 49.8972 104.739C49.3081 104.575 48.6491 104.347 47.9188 104.057C47.1873 103.766 46.5666 103.5 46.0535 103.259C45.5412 103.019 44.9486 102.72 44.2745 102.364C43.6016 102.008 43.0839 101.726 42.7235 101.518C42.3629 101.309 41.9126 101.043 41.3715 100.72C40.8298 100.397 40.4838 100.192 40.3319 100.104L49.9533 94.5499C50.105 94.6375 50.565 94.8924 51.334 95.314C52.103 95.7358 52.7235 96.0838 53.198 96.3577C53.6724 96.6316 54.2993 97.0258 55.0772 97.5411C55.8552 98.0555 56.4723 98.51 56.9283 98.9047C57.3833 99.299 57.829 99.7587 58.2657 100.285C58.7021 100.811 58.9586 101.293 59.0347 101.731C59.1101 102.17 59.0251 102.624 58.7782 103.095C58.5322 103.566 58.0671 103.999 57.3838 104.394C56.8518 104.701 56.2786 104.927 55.6613 105.075Z" fill="#0D0B33"/>
<path d="M4.07031 100.129C7.2299 108.089 9.67176 111.747 16.3801 115.516V126.287C10.2548 121.952 6.97543 119.292 4.07031 110.131V100.129Z" fill="#0D0B33"/>
<path d="M20.9961 119.365L25.6123 121.673V132.444L20.9961 130.136V119.365Z" fill="#0D0B33"/>
<path d="M98.6312 118.479C76.9984 130.967 41.9247 130.967 20.2919 118.479C10.079 112.583 4.68763 104.958 4.11781 97.2358L4.07031 86.4647C4.21554 94.5371 9.62274 102.584 20.2919 108.743C41.9247 121.232 76.9984 121.232 98.6312 108.743C109.256 102.609 114.662 94.6041 114.851 86.5656V85.6953C114.858 85.9854 114.858 86.2755 114.851 86.5656V96.3011C114.663 104.34 109.256 112.345 98.6312 118.479Z" fill="#79EFBD" stroke="#0D0B33" stroke-width="0.59185"/>
<path d="M98.6342 108.24C77.0014 120.729 41.9277 120.729 20.2949 108.24C-1.33789 95.7516 -1.33789 75.5035 20.2949 63.0149C41.9277 50.5263 77.0014 50.5263 98.6342 63.0149C120.267 75.5035 120.267 95.7516 98.6342 108.24Z" fill="#F7F6FF" stroke="#0D0B33" stroke-width="0.59185"/>
<path d="M69.9932 95.0378C70.3157 93.5811 69.6326 92.0583 67.9433 90.4698C72.2133 91.2695 75.904 90.5737 79.0169 88.3827C80.1553 87.5937 80.8947 86.7672 81.2358 85.9018C81.5766 85.0359 81.5346 84.1574 81.1069 83.2642C80.6806 82.3711 80.0342 81.5054 79.1713 80.6677C78.3081 79.8298 77.193 78.9394 75.8265 77.9973L82.9996 73.8563L78.6165 71.3259L71.6426 75.3519C70.8836 74.9137 69.7072 74.2564 68.1133 73.3801L75.1441 69.3212L70.7603 66.7905L63.5871 70.9316C62.9417 70.5809 62.0118 70.0553 60.7974 69.3542L54.7917 65.8539L50.1234 68.549L53.2828 70.3729C54.725 71.2055 54.9241 72.0655 53.8806 72.9528L45.711 77.669C45.901 77.7787 46.0429 77.8719 46.1379 77.9486L45.6823 77.6856L34.24 84.2913C33.1207 84.7623 32.0863 84.7242 31.1373 84.1764L27.9782 82.3526L21.8865 84.8504L27.5795 88.137C27.9401 88.3451 28.4568 88.649 29.1317 89.0485C29.8051 89.4483 30.3125 89.7467 30.6542 89.944L23.3958 94.1343L27.7803 96.6654L34.9533 92.5244C35.7307 92.9956 36.8789 93.6692 38.397 94.5456L31.2527 98.67L35.6359 101.2L42.8943 97.0102C44.5265 97.865 46.0485 98.5802 47.4624 99.1546C48.877 99.7294 50.3569 100.206 51.9035 100.584C53.4495 100.962 54.9251 101.173 56.3293 101.216C57.7332 101.261 59.1895 101.126 60.6992 100.814C62.2072 100.501 63.702 99.9948 65.182 99.2933C68.0668 97.9139 69.6703 96.495 69.9932 95.0378ZM63.0756 76.3868C63.2085 76.4635 63.588 76.6771 64.2144 77.0276C64.8412 77.3782 65.3627 77.6685 65.7802 77.8985C66.1977 78.1286 66.7243 78.46 67.3603 78.8929C67.9959 79.3256 68.5033 79.7064 68.8829 80.0348C69.2624 80.3633 69.6281 80.7553 69.9787 81.2096C70.3304 81.6644 70.5197 82.0806 70.5478 82.4583C70.5766 82.8364 70.4673 83.2336 70.2201 83.6496C69.9738 84.0661 69.5374 84.455 68.9113 84.8164C68.3799 85.1232 67.8106 85.3534 67.2033 85.507C66.5967 85.6607 65.9744 85.7233 65.3392 85.6962C64.7037 85.669 64.0955 85.614 63.5169 85.5317C62.9386 85.4496 62.3023 85.2851 61.61 85.0386C60.9176 84.7924 60.3246 84.5705 59.8316 84.3734C59.3381 84.1762 58.764 83.9053 58.1094 83.56C57.4547 83.2148 56.9608 82.9519 56.629 82.7712C56.2969 82.5903 55.8558 82.3357 55.3052 82.007C54.7544 81.6782 54.4325 81.4866 54.3374 81.4317L63.076 76.3869L63.0757 76.3867L63.0756 76.3868ZM55.6613 94.4875C55.0438 94.6352 54.432 94.7205 53.8247 94.7426C53.2178 94.764 52.5578 94.7121 51.8468 94.586C51.1351 94.4604 50.4851 94.3148 49.8972 94.1507C49.3081 93.9866 48.6491 93.7588 47.9188 93.469C47.1873 93.1783 46.5666 92.9126 46.0535 92.6715C45.5412 92.4307 44.9486 92.1322 44.2745 91.7761C43.6016 91.4199 43.0839 91.1378 42.7235 90.9297C42.3629 90.7215 41.9126 90.4556 41.3715 90.1325C40.8298 89.8095 40.4838 89.6042 40.3319 89.5165L49.9533 83.9621C50.105 84.0496 50.565 84.3045 51.334 84.7261C52.103 85.1479 52.7235 85.4959 53.198 85.7698C53.6724 86.0437 54.2993 86.438 55.0772 86.9533C55.8552 87.4676 56.4723 87.9221 56.9283 88.3168C57.3833 88.7111 57.829 89.1708 58.2657 89.6971C58.7021 90.2228 58.9586 90.7049 59.0347 91.1432C59.1101 91.5818 59.0251 92.0359 58.7782 92.507C58.5322 92.9784 58.0671 93.4111 57.3838 93.8056C56.8518 94.1126 56.2786 94.3396 55.6613 94.4875Z" fill="#0D0B33"/>
<path d="M4.07031 89.541C7.2299 97.5009 9.67176 101.159 16.3801 104.928V115.699C10.2548 111.364 6.97543 108.704 4.07031 99.5428V89.541Z" fill="#0D0B33"/>
<path d="M20.9961 108.777L25.6123 111.085V121.857L20.9961 119.548V108.777Z" fill="#0D0B33"/>
<path d="M98.6312 107.897C76.9984 120.385 41.9247 120.385 20.2919 107.897C10.079 102.001 4.68763 94.3756 4.11781 86.6537L4.07031 75.8826C4.21554 83.9551 9.62274 92.0018 20.2919 98.1611C41.9247 110.65 76.9984 110.65 98.6312 98.1611C109.256 92.0274 114.662 84.0221 114.851 75.9836V75.1133C114.858 75.4034 114.858 75.6935 114.851 75.9836V85.7191C114.663 93.7577 109.256 101.763 98.6312 107.897Z" fill="#79EFBD" stroke="#0D0B33" stroke-width="0.59185"/>
<path d="M98.6342 97.6581C77.0014 110.147 41.9277 110.147 20.2949 97.6581C-1.33789 85.1695 -1.33789 64.9215 20.2949 52.4329C41.9277 39.9443 77.0014 39.9443 98.6342 52.4329C120.267 64.9215 120.267 85.1695 98.6342 97.6581Z" fill="#F7F6FF" stroke="#0D0B33" stroke-width="0.59185"/>
<path d="M69.9932 84.4558C70.3157 82.9991 69.6326 81.4763 67.9433 79.8877C72.2133 80.6875 75.904 79.9916 79.0169 77.8006C80.1553 77.0117 80.8947 76.1852 81.2358 75.3197C81.5766 74.4539 81.5346 73.5754 81.1069 72.6822C80.6806 71.7891 80.0342 70.9234 79.1713 70.0856C78.3081 69.2477 77.193 68.3574 75.8265 67.4153L82.9996 63.2742L78.6165 60.7438L71.6426 64.7698C70.8836 64.3317 69.7072 63.6744 68.1133 62.7981L75.1441 58.7392L70.7603 56.2085L63.5871 60.3495C62.9417 59.9989 62.0118 59.4732 60.7974 58.7721L54.7917 55.2719L50.1234 57.9669L53.2828 59.7908C54.725 60.6234 54.9241 61.4835 53.8806 62.3707L45.711 67.087C45.901 67.1967 46.0429 67.2899 46.1379 67.3666L45.6823 67.1036L34.24 73.7092C33.1207 74.1803 32.0863 74.1422 31.1373 73.5944L27.9782 71.7706L21.8865 74.2683L27.5795 77.5549C27.9401 77.7631 28.4568 78.0669 29.1317 78.4664C29.8051 78.8663 30.3125 79.1647 30.6542 79.362L23.3958 83.5522L27.7803 86.0834L34.9533 81.9424C35.7307 82.4136 36.8789 83.0872 38.397 83.9636L31.2527 88.088L35.6359 90.6185L42.8943 86.4282C44.5265 87.283 46.0485 87.9982 47.4624 88.5726C48.877 89.1473 50.3569 89.6244 51.9035 90.002C53.4495 90.3799 54.9251 90.5905 56.3293 90.6342C57.7332 90.6786 59.1895 90.5438 60.6992 90.232C62.2072 89.9192 63.702 89.4128 65.182 88.7112C68.0668 87.3319 69.6703 85.913 69.9932 84.4558ZM63.0756 65.8048C63.2085 65.8815 63.588 66.0951 64.2144 66.4456C64.8412 66.7962 65.3627 67.0864 65.7802 67.3164C66.1977 67.5466 66.7243 67.878 67.3603 68.3109C67.9959 68.7436 68.5033 69.1243 68.8829 69.4528C69.2624 69.7813 69.6281 70.1732 69.9787 70.6276C70.3304 71.0824 70.5197 71.4986 70.5478 71.8763C70.5766 72.2543 70.4673 72.6515 70.2201 73.0676C69.9738 73.484 69.5374 73.8729 68.9113 74.2344C68.3799 74.5412 67.8106 74.7714 67.2033 74.925C66.5967 75.0786 65.9744 75.1413 65.3392 75.1141C64.7037 75.087 64.0955 75.0319 63.5169 74.9496C62.9386 74.8676 62.3023 74.7031 61.61 74.4566C60.9176 74.2103 60.3246 73.9885 59.8316 73.7914C59.3381 73.5942 58.764 73.3232 58.1094 72.978C57.4547 72.6327 56.9608 72.3699 56.629 72.1892C56.2969 72.0083 55.8558 71.7537 55.3052 71.425C54.7544 71.0962 54.4325 70.9046 54.3374 70.8497L63.076 65.8049L63.0757 65.8047L63.0756 65.8048ZM55.6613 83.9054C55.0438 84.0532 54.432 84.1384 53.8247 84.1606C53.2178 84.182 52.5578 84.13 51.8468 84.004C51.1351 83.8784 50.4851 83.7328 49.8972 83.5687C49.3081 83.4046 48.6491 83.1767 47.9188 82.887C47.1873 82.5963 46.5666 82.3305 46.0535 82.0894C45.5412 81.8486 44.9486 81.5501 44.2745 81.1941C43.6016 80.8379 43.0839 80.5557 42.7235 80.3477C42.3629 80.1395 41.9126 79.8735 41.3715 79.5505C40.8298 79.2275 40.4838 79.0222 40.3319 78.9345L49.9533 73.38C50.105 73.4676 50.565 73.7224 51.334 74.1441C52.103 74.5659 52.7235 74.9139 53.198 75.1878C53.6724 75.4617 54.2993 75.8559 55.0772 76.3712C55.8552 76.8856 56.4723 77.3401 56.9283 77.7347C57.3833 78.1291 57.829 78.5888 58.2657 79.1151C58.7021 79.6408 58.9586 80.1229 59.0347 80.5612C59.1101 80.9998 59.0251 81.4539 58.7782 81.925C58.5322 82.3963 58.0671 82.8291 57.3838 83.2236C56.8518 83.5306 56.2786 83.7575 55.6613 83.9054Z" fill="#0D0B33"/>
<path d="M4.07031 78.959C7.2299 86.9188 9.67176 90.5769 16.3801 94.3463V105.117C10.2548 100.782 6.97543 98.1217 4.07031 88.9607V78.959Z" fill="#0D0B33"/>
<path d="M20.9961 98.1953L25.6123 100.503V111.275L20.9961 108.966V98.1953Z" fill="#0D0B33"/>
<path d="M98.6312 97.3109C76.9984 109.8 41.9247 109.8 20.2919 97.3109C10.079 91.415 4.68763 83.7896 4.11781 76.0678L4.07031 65.2967C4.21554 73.3691 9.62274 81.4158 20.2919 87.5751C41.9247 100.064 76.9984 100.064 98.6312 87.5751C109.256 81.4415 114.662 73.4362 114.851 65.3977V64.5273C114.858 64.8174 114.858 65.1076 114.851 65.3977V75.1332C114.663 83.1718 109.256 91.1772 98.6312 97.3109Z" fill="#79EFBD" stroke="#0D0B33" stroke-width="0.59185"/>
<path d="M98.6342 87.0722C77.0014 99.5608 41.9277 99.5608 20.2949 87.0722C-1.33789 74.5836 -1.33789 54.3355 20.2949 41.8469C41.9277 29.3583 77.0014 29.3583 98.6342 41.8469C120.267 54.3355 120.267 74.5836 98.6342 87.0722Z" fill="#F7F6FF" stroke="#0D0B33" stroke-width="0.59185"/>
<path d="M69.9932 73.8718C70.3157 72.4151 69.6326 70.8923 67.9433 69.3038C72.2133 70.1035 75.904 69.4076 79.0169 67.2167C80.1553 66.4277 80.8947 65.6012 81.2358 64.7357C81.5766 63.8699 81.5346 62.9914 81.1069 62.0982C80.6806 61.2051 80.0342 60.3394 79.1713 59.5016C78.3081 58.6637 77.193 57.7734 75.8265 56.8313L82.9996 52.6903L78.6165 50.1599L71.6426 54.1859C70.8836 53.7477 69.7072 53.0904 68.1133 52.2141L75.1441 48.1552L70.7603 45.6245L63.5871 49.7655C62.9417 49.4149 62.0118 48.8892 60.7974 48.1882L54.7917 44.6879L50.1234 47.3829L53.2828 49.2068C54.725 50.0395 54.9241 50.8995 53.8806 51.7867L45.711 56.503C45.901 56.6127 46.0429 56.7059 46.1379 56.7826L45.6823 56.5196L34.24 63.1253C33.1207 63.5963 32.0863 63.5582 31.1373 63.0104L27.9782 61.1866L21.8865 63.6844L27.5795 66.9709C27.9401 67.1791 28.4568 67.483 29.1317 67.8825C29.8051 68.2823 30.3125 68.5807 30.6542 68.778L23.3958 72.9682L27.7803 75.4994L34.9533 71.3584C35.7307 71.8296 36.8789 72.5032 38.397 73.3796L31.2527 77.504L35.6359 80.0345L42.8943 75.8442C44.5265 76.699 46.0485 77.4142 47.4624 77.9886C48.877 78.5633 50.3569 79.0404 51.9035 79.418C53.4495 79.7959 54.9251 80.0065 56.3293 80.0503C57.7332 80.0946 59.1895 79.9598 60.6992 79.648C62.2072 79.3352 63.702 78.8288 65.182 78.1272C68.0668 76.7479 69.6703 75.329 69.9932 73.8718ZM63.0756 55.2208C63.2085 55.2975 63.588 55.5111 64.2144 55.8616C64.8412 56.2122 65.3627 56.5024 65.7802 56.7324C66.1977 56.9626 66.7243 57.294 67.3603 57.7269C67.9959 58.1596 68.5033 58.5403 68.8829 58.8688C69.2624 59.1973 69.6281 59.5892 69.9787 60.0436C70.3304 60.4984 70.5197 60.9146 70.5478 61.2923C70.5766 61.6704 70.4673 62.0676 70.2201 62.4836C69.9738 62.9 69.5374 63.289 68.9113 63.6504C68.3799 63.9572 67.8106 64.1874 67.2033 64.341C66.5967 64.4946 65.9744 64.5573 65.3392 64.5302C64.7037 64.503 64.0955 64.448 63.5169 64.3657C62.9386 64.2836 62.3023 64.1191 61.61 63.8726C60.9176 63.6263 60.3246 63.4045 59.8316 63.2074C59.3381 63.0102 58.764 62.7392 58.1094 62.394C57.4547 62.0487 56.9608 61.7859 56.629 61.6052C56.2969 61.4243 55.8558 61.1697 55.3052 60.841C54.7544 60.5122 54.4325 60.3206 54.3374 60.2657L63.076 55.2209L63.0757 55.2207L63.0756 55.2208ZM55.6613 73.3215C55.0438 73.4692 54.432 73.5545 53.8247 73.5766C53.2178 73.598 52.5578 73.546 51.8468 73.42C51.1351 73.2944 50.4851 73.1488 49.8972 72.9847C49.3081 72.8206 48.6491 72.5927 47.9188 72.303C47.1873 72.0123 46.5666 71.7466 46.0535 71.5055C45.5412 71.2646 44.9486 70.9662 44.2745 70.6101C43.6016 70.2539 43.0839 69.9718 42.7235 69.7637C42.3629 69.5555 41.9126 69.2895 41.3715 68.9665C40.8298 68.6435 40.4838 68.4382 40.3319 68.3505L49.9533 62.796C50.105 62.8836 50.565 63.1384 51.334 63.5601C52.103 63.9819 52.7235 64.3299 53.198 64.6038C53.6724 64.8777 54.2993 65.2719 55.0772 65.7872C55.8552 66.3016 56.4723 66.7561 56.9283 67.1507C57.3833 67.5451 57.829 68.0048 58.2657 68.5311C58.7021 69.0568 58.9586 69.5389 59.0347 69.9772C59.1101 70.4158 59.0251 70.8699 58.7782 71.341C58.5322 71.8123 58.0671 72.2451 57.3838 72.6396C56.8518 72.9466 56.2786 73.1735 55.6613 73.3215Z" fill="#0D0B33"/>
<path d="M4.07031 68.373C7.2299 76.3329 9.67176 79.991 16.3801 83.7603V94.5314C10.2548 90.1961 6.97543 87.5358 4.07031 78.3748V68.373Z" fill="#0D0B33"/>
<path d="M20.9961 87.6094L25.6123 89.9175V100.689L20.9961 98.3805V87.6094Z" fill="#0D0B33"/>
<path d="M98.6312 86.725C76.9984 99.2136 41.9247 99.2136 20.2919 86.725C10.079 80.8291 4.68763 73.2037 4.11781 65.4819L4.07031 54.7108C4.21554 62.7832 9.62274 70.8299 20.2919 76.9892C41.9247 89.4778 76.9984 89.4778 98.6312 76.9892C109.256 70.8556 114.662 62.8502 114.851 54.8117V53.9414C114.858 54.2315 114.858 54.5216 114.851 54.8117V64.5472C114.663 72.5858 109.256 80.5913 98.6312 86.725Z" fill="#79EFBD" stroke="#0D0B33" stroke-width="0.59185"/>
<path d="M98.6342 76.4863C77.0014 88.9749 41.9277 88.9749 20.2949 76.4863C-1.33789 63.9977 -1.33789 43.7496 20.2949 31.261C41.9277 18.7724 77.0014 18.7724 98.6342 31.261C120.267 43.7496 120.267 63.9977 98.6342 76.4863Z" fill="#F7F6FF" stroke="#0D0B33" stroke-width="0.59185"/>
<path d="M69.9932 63.2839C70.3157 61.8272 69.6326 60.3044 67.9433 58.7159C72.2133 59.5156 75.904 58.8198 79.0169 56.6288C80.1553 55.8398 80.8947 55.0133 81.2358 54.1479C81.5766 53.282 81.5346 52.4035 81.1069 51.5103C80.6806 50.6172 80.0342 49.7515 79.1713 48.9137C78.3081 48.0758 77.193 47.1855 75.8265 46.2434L82.9996 42.1024L78.6165 39.572L71.6426 43.598C70.8836 43.1598 69.7072 42.5025 68.1133 41.6262L75.1441 37.5673L70.7603 35.0366L63.5871 39.1777C62.9417 38.827 62.0118 38.3014 60.7974 37.6003L54.7917 34.1L50.1234 36.7951L53.2828 38.619C54.725 39.4516 54.9241 40.3116 53.8806 41.1989L45.711 45.9151C45.901 46.0248 46.0429 46.118 46.1379 46.1947L45.6823 45.9317L34.24 52.5374C33.1207 53.0084 32.0863 52.9703 31.1373 52.4225L27.9782 50.5987L21.8865 53.0965L27.5795 56.383C27.9401 56.5912 28.4568 56.8951 29.1317 57.2946C29.8051 57.6944 30.3125 57.9928 30.6542 58.1901L23.3958 62.3804L27.7803 64.9115L34.9533 60.7705C35.7307 61.2417 36.8789 61.9153 38.397 62.7917L31.2527 66.9161L35.6359 69.4466L42.8943 65.2563C44.5265 66.1111 46.0485 66.8263 47.4624 67.4007C48.877 67.9755 50.3569 68.4525 51.9035 68.8301C53.4495 69.208 54.9251 69.4186 56.3293 69.4624C57.7332 69.5067 59.1895 69.3719 60.6992 69.0601C62.2072 68.7473 63.702 68.2409 65.182 67.5393C68.0668 66.16 69.6703 64.7411 69.9932 63.2839ZM63.0756 44.6329C63.2085 44.7096 63.588 44.9232 64.2144 45.2737C64.8412 45.6243 65.3627 45.9146 65.7802 46.1445C66.1977 46.3747 66.7243 46.7061 67.3603 47.139C67.9959 47.5717 68.5033 47.9524 68.8829 48.2809C69.2624 48.6094 69.6281 49.0014 69.9787 49.4557C70.3304 49.9105 70.5197 50.3267 70.5478 50.7044C70.5766 51.0825 70.4673 51.4797 70.2201 51.8957C69.9738 52.3122 69.5374 52.7011 68.9113 53.0625C68.3799 53.3693 67.8106 53.5995 67.2033 53.7531C66.5967 53.9068 65.9744 53.9694 65.3392 53.9423C64.7037 53.9151 64.0955 53.8601 63.5169 53.7778C62.9386 53.6957 62.3023 53.5312 61.61 53.2847C60.9176 53.0385 60.3246 52.8166 59.8316 52.6195C59.3381 52.4223 58.764 52.1513 58.1094 51.8061C57.4547 51.4608 56.9608 51.198 56.629 51.0173C56.2969 50.8364 55.8558 50.5818 55.3052 50.2531C54.7544 49.9243 54.4325 49.7327 54.3374 49.6778L63.076 44.633L63.0757 44.6328L63.0756 44.6329ZM55.6613 62.7336C55.0438 62.8813 54.432 62.9666 53.8247 62.9887C53.2178 63.0101 52.5578 62.9582 51.8468 62.8321C51.1351 62.7065 50.4851 62.5609 49.8972 62.3968C49.3081 62.2327 48.6491 62.0049 47.9188 61.7151C47.1873 61.4244 46.5666 61.1587 46.0535 60.9176C45.5412 60.6767 44.9486 60.3783 44.2745 60.0222C43.6016 59.666 43.0839 59.3839 42.7235 59.1758C42.3629 58.9676 41.9126 58.7016 41.3715 58.3786C40.8298 58.0556 40.4838 57.8503 40.3319 57.7626L49.9533 52.2082C50.105 52.2957 50.565 52.5506 51.334 52.9722C52.103 53.394 52.7235 53.742 53.198 54.0159C53.6724 54.2898 54.2993 54.6841 55.0772 55.1994C55.8552 55.7137 56.4723 56.1682 56.9283 56.5629C57.3833 56.9572 57.829 57.4169 58.2657 57.9432C58.7021 58.4689 58.9586 58.951 59.0347 59.3893C59.1101 59.8279 59.0251 60.282 58.7782 60.7531C58.5322 61.2245 58.0671 61.6572 57.3838 62.0517C56.8518 62.3587 56.2786 62.5857 55.6613 62.7336Z" fill="#0D0B33"/>
<path d="M4.07031 57.7871C7.2299 65.747 9.67176 69.4051 16.3801 73.1744V83.9455C10.2548 79.6102 6.97543 76.9499 4.07031 67.7888V57.7871Z" fill="#0D0B33"/>
<path d="M20.9961 77.0234L25.6123 79.3315V90.1026L20.9961 87.7945V77.0234Z" fill="#0D0B33"/>
<path d="M98.6312 76.139C76.9984 88.6277 41.9247 88.6277 20.2919 76.139C10.079 70.2431 4.68763 62.6178 4.11781 54.8959L4.07031 44.1248C4.21554 52.1972 9.62274 60.244 20.2919 66.4033C41.9247 78.8919 76.9984 78.8919 98.6312 66.4033C109.256 60.2696 114.662 52.2643 114.851 44.2258V43.3555C114.858 43.6456 114.858 43.9357 114.851 44.2258V53.9613C114.663 61.9999 109.256 70.0053 98.6312 76.139Z" fill="#79EFBD" stroke="#0D0B33" stroke-width="0.59185"/>
<path d="M98.6342 65.9003C77.0014 78.389 41.9277 78.389 20.2949 65.9003C-1.33789 53.4117 -1.33789 33.1637 20.2949 20.6751C41.9277 8.18644 77.0014 8.18644 98.6342 20.6751C120.267 33.1637 120.267 53.4117 98.6342 65.9003Z" fill="#F7F6FF" stroke="#0D0B33" stroke-width="0.59185"/>
<path d="M69.9932 52.698C70.3157 51.2413 69.6326 49.7185 67.9433 48.1299C72.2133 48.9297 75.904 48.2338 79.0169 46.0428C80.1553 45.2539 80.8947 44.4274 81.2358 43.5619C81.5766 42.6961 81.5346 41.8176 81.1069 40.9244C80.6806 40.0313 80.0342 39.1655 79.1713 38.3278C78.3081 37.4899 77.193 36.5996 75.8265 35.6575L82.9996 31.5164L78.6165 28.986L71.6426 33.012C70.8836 32.5739 69.7072 31.9166 68.1133 31.0403L75.1441 26.9814L70.7603 24.4507L63.5871 28.5917C62.9417 28.2411 62.0118 27.7154 60.7974 27.0143L54.7917 23.5141L50.1234 26.2091L53.2828 28.033C54.725 28.8656 54.9241 29.7257 53.8806 30.6129L45.711 35.3292C45.901 35.4389 46.0429 35.5321 46.1379 35.6088L45.6823 35.3458L34.24 41.9514C33.1207 42.4225 32.0863 42.3844 31.1373 41.8366L27.9782 40.0128L21.8865 42.5105L27.5795 45.7971C27.9401 46.0053 28.4568 46.3091 29.1317 46.7086C29.8051 47.1085 30.3125 47.4069 30.6542 47.6041L23.3958 51.7944L27.7803 54.3256L34.9533 50.1846C35.7307 50.6558 36.8789 51.3294 38.397 52.2058L31.2527 56.3302L35.6359 58.8606L42.8943 54.6704C44.5265 55.5252 46.0485 56.2403 47.4624 56.8148C48.877 57.3895 50.3569 57.8665 51.9035 58.2442C53.4495 58.6221 54.9251 58.8327 56.3293 58.8764C57.7332 58.9207 59.1895 58.786 60.6992 58.4742C62.2072 58.1614 63.702 57.655 65.182 56.9534C68.0668 55.5741 69.6703 54.1551 69.9932 52.698ZM63.0756 34.047C63.2085 34.1237 63.588 34.3373 64.2144 34.6878C64.8412 35.0384 65.3627 35.3286 65.7802 35.5586C66.1977 35.7888 66.7243 36.1202 67.3603 36.5531C67.9959 36.9858 68.5033 37.3665 68.8829 37.695C69.2624 38.0235 69.6281 38.4154 69.9787 38.8698C70.3304 39.3246 70.5197 39.7408 70.5478 40.1184C70.5766 40.4965 70.4673 40.8937 70.2201 41.3098C69.9738 41.7262 69.5374 42.1151 68.9113 42.4766C68.3799 42.7834 67.8106 43.0136 67.2033 43.1672C66.5967 43.3208 65.9744 43.3835 65.3392 43.3563C64.7037 43.3292 64.0955 43.2741 63.5169 43.1918C62.9386 43.1098 62.3023 42.9453 61.61 42.6988C60.9176 42.4525 60.3246 42.2307 59.8316 42.0336C59.3381 41.8364 58.764 41.5654 58.1094 41.2202C57.4547 40.8749 56.9608 40.6121 56.629 40.4314C56.2969 40.2505 55.8558 39.9958 55.3052 39.6671C54.7544 39.3384 54.4325 39.1468 54.3374 39.0919L63.076 34.0471L63.0757 34.0469L63.0756 34.047ZM55.6613 52.1476C55.0438 52.2954 54.432 52.3806 53.8247 52.4028C53.2178 52.4242 52.5578 52.3722 51.8468 52.2462C51.1351 52.1206 50.4851 51.975 49.8972 51.8109C49.3081 51.6468 48.6491 51.4189 47.9188 51.1292C47.1873 50.8385 46.5666 50.5727 46.0535 50.3316C45.5412 50.0908 44.9486 49.7923 44.2745 49.4363C43.6016 49.0801 43.0839 48.7979 42.7235 48.5899C42.3629 48.3817 41.9126 48.1157 41.3715 47.7926C40.8298 47.4696 40.4838 47.2644 40.3319 47.1767L49.9533 41.6222C50.105 41.7098 50.565 41.9646 51.334 42.3863C52.103 42.8081 52.7235 43.1561 53.198 43.43C53.6724 43.7039 54.2993 44.0981 55.0772 44.6134C55.8552 45.1278 56.4723 45.5823 56.9283 45.9769C57.3833 46.3713 57.829 46.831 58.2657 47.3573C58.7021 47.883 58.9586 48.3651 59.0347 48.8034C59.1101 49.242 59.0251 49.6961 58.7782 50.1672C58.5322 50.6385 58.0671 51.0713 57.3838 51.4658C56.8518 51.7728 56.2786 51.9997 55.6613 52.1476Z" fill="#0D0B33"/>
<path d="M4.07031 47.2012C7.2299 55.161 9.67176 58.8191 16.3801 62.5885V73.3596C10.2548 69.0242 6.97543 66.3639 4.07031 57.2029V47.2012Z" fill="#0D0B33"/>
<path d="M20.9961 66.4375L25.6123 68.7456V79.5167L20.9961 77.2086V66.4375Z" fill="#0D0B33"/>
<path d="M98.5765 65.5531C76.9437 78.0417 41.87 78.0417 20.2372 65.5531C10.0243 59.6572 4.63294 52.0318 4.06313 44.31L4.01562 33.5389C4.16086 41.6113 9.56805 49.658 20.2372 55.8173C41.87 68.3059 76.9437 68.3059 98.5765 55.8173C109.201 49.6837 114.608 41.6784 114.796 33.6398V32.7695C114.803 33.0596 114.803 33.3498 114.796 33.6398V43.3754C114.608 51.414 109.201 59.4194 98.5765 65.5531Z" fill="#79EFBD" stroke="#0D0B33" stroke-width="0.59185"/>
<path d="M98.5795 55.3144C76.9467 67.803 41.873 67.803 20.2402 55.3144C-1.39258 42.8258 -1.39258 22.5777 20.2402 10.0891C41.873 -2.3995 76.9467 -2.3995 98.5795 10.0891C120.212 22.5777 120.212 42.8258 98.5795 55.3144Z" fill="#F7F6FF" stroke="#0D0B33" stroke-width="0.59185"/>
<path d="M4.01562 36.6152C7.17521 44.5751 9.81239 48.3555 16.3255 52.892V62.7736C10.2002 58.4383 6.92075 55.778 4.01562 46.617V36.6152Z" fill="#0D0B33"/>
<path fill-rule="evenodd" clip-rule="evenodd" d="M45.3627 17.2016L78.7653 36.6644C79.184 36.9084 79.4124 37.238 79.4007 37.5813L79.2827 43.8082C79.2604 44.9569 76.8668 45.544 75.4807 44.7364L42.0781 25.2735C41.6594 25.0296 41.431 24.7 41.4428 24.3566L41.5607 18.1298C41.5758 16.9768 43.9766 16.394 45.3627 17.2016ZM51.4197 12.3852L62.1064 12.3164C62.7029 12.3138 63.2685 12.4469 63.68 12.6867L97.0754 32.1453C98.4614 32.9529 97.4611 34.3518 95.4824 34.3606L84.803 34.4336C84.2065 34.4362 83.6408 34.3031 83.2293 34.0633L49.8267 14.6005C48.4407 13.7929 49.441 12.394 51.4197 12.3852ZM69.4165 49.5486L58.7299 49.6173C58.1333 49.6199 57.5677 49.4868 57.1562 49.2471L23.7608 29.7884C22.3748 28.9808 23.3751 27.5819 25.3538 27.5731L36.0405 27.5044C36.637 27.5017 37.2026 27.6348 37.6141 27.8746L71.0095 47.3332C72.3955 48.1409 71.3952 49.5398 69.4165 49.5486Z" fill="#0D0B33"/>
<path d="M30.7344 60.2031L38.0433 62.7898V123.716L30.7344 121.129V60.2031Z" fill="#0D0B33"/>
<defs>
<linearGradient id="paint0_linear_1812_47098" x1="-28.0019" y1="159.899" x2="-21.992" y2="212.908" gradientUnits="userSpaceOnUse">
<stop stop-color="white"/>
<stop offset="1" stop-color="white" stop-opacity="0"/>
</linearGradient>
</defs>
</svg>
