<svg width="88" height="94" viewBox="0 0 88 94" fill="none" xmlns="http://www.w3.org/2000/svg">
<path fill-rule="evenodd" clip-rule="evenodd" d="M85.1959 73.7584C87.3791 72.1604 87.3791 68.9011 85.1959 67.3031L58.7064 47.9128C56.0639 45.9785 52.3437 47.8656 52.3437 51.1405V58.5538H4C1.79086 58.5538 0 60.3447 0 62.5538V78.5077C0 80.7169 1.79086 82.5077 4 82.5077H52.3437V89.9211C52.3437 93.1959 56.0639 95.0831 58.7064 93.1488L85.1959 73.7584Z" fill="#4A21EF"/>
<path fill-rule="evenodd" clip-rule="evenodd" d="M1.95056 20.6078C-0.23258 22.2058 -0.232588 25.4651 1.95055 27.0631L28.4401 46.4534C31.0826 48.3877 34.8028 46.5006 34.8028 43.2258L34.8028 35.8124L83.1465 35.8124C85.3556 35.8124 87.1465 34.0215 87.1465 31.8124L87.1465 15.8585C87.1465 13.6493 85.3556 11.8585 83.1465 11.8585L34.8028 11.8585L34.8028 4.44514C34.8028 1.17033 31.0826 -0.716848 28.4401 1.21746L1.95056 20.6078Z" fill="#6A66FF"/>
<circle cx="43" cy="44" r="17.5" fill="white" stroke="#4A21EF" stroke-width="3"/>
<path d="M48.9543 36.9998L36.0273 49.9268L37.8498 51.7492L50.7768 38.8223L48.9543 36.9998Z" fill="#4A21EF"/>
<path d="M35.9871 38.9329L48.9141 51.8599L50.7365 50.0374L37.8096 37.1104L35.9871 38.9329Z" fill="#4A21EF"/>
</svg>
