<svg width="96" height="108" viewBox="0 0 96 108" fill="none" xmlns="http://www.w3.org/2000/svg">
<g id="Group 1597879925">
<g id="Group">
<path id="Vector" d="M44.3148 22.5011L11.4868 47.3746C8.58281 49.5211 6.94141 52.9301 6.94141 56.4655V107.223H88.6326V56.4655C88.6326 52.9301 86.9913 49.5211 84.0872 47.3746L51.2592 22.5011C49.239 20.986 46.335 20.986 44.3148 22.5011Z" fill="#939DFF"/>
<g id="Group_2">
<path id="Subtract" fill-rule="evenodd" clip-rule="evenodd" d="M72.3438 21.492C73.1014 27.1737 71.965 32.4767 69.4398 36.8959C68.6822 38.1585 69.1873 39.7999 70.5761 40.4312C72.3438 41.6938 73.4802 43.8403 73.3539 46.113C73.1014 49.6483 70.0711 52.2998 66.5358 52.2998H63.253C62.3692 52.2998 61.6116 53.0574 61.6116 53.9412V55.4563C61.6116 57.4765 59.9702 59.1179 57.95 59.1179H37.8744C35.8542 59.1179 34.2128 57.4765 34.2128 55.4563V53.9412C34.2128 53.0574 33.4552 52.2998 32.5714 52.2998H29.2886C25.7533 52.2998 22.5967 49.6483 22.4705 46.113C22.3442 43.714 23.4806 41.6938 25.2482 40.4312C26.3846 39.5474 26.8896 38.0322 26.1321 36.7696C24.1119 33.2343 22.9755 29.1939 22.9755 24.7748C22.9755 10.2547 35.6017 -1.48764 50.5006 0.153761C61.7378 1.41638 70.8287 10.3809 72.3438 21.492ZM29.2855 40.8115C29.538 44.473 34.0834 46.9983 37.8712 46.6195C40.649 46.367 42.4167 44.5993 42.4167 42.5791C42.4167 40.5589 40.649 38.16 37.6187 37.0236C33.5783 35.5085 29.0329 36.8974 29.2855 40.8115ZM66.1605 40.8115C65.908 44.473 61.3626 46.9983 57.5747 46.6195C54.797 46.367 53.0293 44.5993 53.0293 42.5791C53.0293 40.5589 54.797 38.16 57.8272 37.0236C61.8676 35.5085 66.413 36.8974 66.1605 40.8115ZM47.0935 45.3568L45.3258 48.5134C44.947 49.0184 45.452 49.776 46.0834 49.776H49.7449C50.3763 49.776 50.755 49.1447 50.5025 48.5134L48.7349 45.3568C48.2298 44.8518 47.346 44.8518 47.0935 45.3568Z" fill="#F5F5F5"/>
<path id="Vector_2" d="M33.197 96.365C32.9445 95.7337 32.5657 95.1024 32.0607 94.7236C31.3031 93.966 31.3031 92.7034 32.1869 91.9458L82.3128 53.4361C83.0703 52.8047 84.2067 52.931 84.838 53.8148C85.4693 54.5724 86.3531 55.2037 87.6158 55.7088C89.5097 56.3401 91.6561 56.0876 93.2975 54.8249C95.6965 52.8048 96.2015 49.1432 94.1814 46.6179C93.045 45.1028 91.2773 44.3452 89.5097 44.3452C88.6259 44.3452 87.9945 43.7139 87.8683 42.8301C87.742 41.5675 87.1107 40.4311 86.1006 39.5473C84.3329 38.0321 81.8077 38.1584 79.9138 39.5473C78.1461 40.9362 77.5148 43.2089 78.9037 45.7341C79.2825 46.4917 79.03 47.5018 78.3987 48.0068L29.6617 85.3802C29.0304 85.8853 28.0203 85.8853 27.389 85.3802C24.99 83.4863 21.4547 83.7388 19.182 86.2641C17.6668 88.0317 17.4143 90.557 18.4244 92.5771C19.3082 94.4711 21.0759 95.6074 22.9698 95.86C23.6011 95.9862 23.9799 96.6175 23.8537 97.2488C23.6011 98.5114 23.8537 100.027 24.7375 101.163C26.6314 103.562 30.293 103.814 32.4394 101.289C33.7021 100.027 33.9546 98.1327 33.197 96.365Z" fill="#F5F5F5"/>
<path id="Vector_3" d="M35.2168 81.2129L49.2318 70.4807L54.5348 74.8999L41.2774 85.0008L35.2168 81.2129Z" fill="#F5F5F5"/>
<path id="Vector_4" d="M77.1391 92.7037C76.8866 93.2088 76.5078 93.7138 76.129 94.2189C75.2452 95.229 73.9826 95.8603 72.5937 96.1128C71.9624 96.2391 71.5836 96.8704 71.7099 97.3754C71.9624 98.7643 71.7099 100.153 70.826 101.29C68.9321 103.688 65.2705 103.941 63.1241 101.416C61.9877 100.027 61.7352 98.133 62.3665 96.3653C62.619 95.734 63.1241 95.1027 63.5028 94.7239C64.2604 93.9663 64.2604 92.7037 63.3766 91.9462L43.9323 77.0473L13.1245 53.4364C12.3669 52.8051 11.2306 53.0576 10.5992 53.8152C9.96794 54.5727 9.08411 55.204 7.82149 55.7091C5.92757 56.3404 3.78112 56.0879 2.13972 54.8253C-0.259247 52.8051 -0.764299 49.1435 1.25589 46.6183C2.39224 45.1031 4.15991 44.3455 5.92757 44.3455C6.8114 44.3455 7.4427 43.7142 7.56897 42.8304C7.69523 41.5678 8.32654 40.4314 9.33663 39.5476C11.1043 38.0325 13.6295 38.1587 15.5234 39.6739C17.2911 41.0627 17.9224 43.3354 16.5335 45.8607C16.1548 46.6183 16.4073 47.6283 17.0386 48.1334L65.7756 85.5068C66.4069 86.0119 67.417 86.0119 68.0483 85.6331C70.4472 83.7392 73.9826 83.9917 76.2553 86.5169C77.7704 88.1583 78.1492 90.6835 77.1391 92.7037Z" fill="#F5F5F5"/>
<path id="Vector_5" d="M76.1303 94.2189C75.2465 95.229 73.9838 95.8603 72.595 96.1129C71.9637 96.2391 71.5849 96.8704 71.7111 97.3755C71.9637 98.7644 71.7111 100.153 70.8273 101.29C68.9334 103.689 65.2718 103.941 63.1253 101.416C61.989 100.027 61.7365 98.133 62.3678 96.3654C62.6203 95.7341 63.1254 95.1028 63.5041 94.724C64.2617 93.9664 64.2617 92.7038 63.3779 91.9462L43.9336 77.0474L45.4487 75.911C47.3427 74.3959 50.4992 74.3959 52.3931 75.911L76.1303 94.2189Z" fill="#F5F5F5"/>
</g>
<path id="Vector_6" d="M88.6463 107.35H6.95508V57.2239L47.7376 88.663L88.6463 57.2239V107.35Z" fill="#4A21EF"/>
<path id="Vector_7" d="M88.6463 107.349L51.2729 78.6881C49.379 77.173 46.2224 77.173 44.3285 78.6881L6.95508 107.349H88.6463Z" fill="#5C33FF"/>
</g>
</g>
</svg>
