<svg width="108" height="97" viewBox="0 0 108 97" fill="none" xmlns="http://www.w3.org/2000/svg">
<path d="M106.382 15.2743L98.894 7.68486C96.6774 5.43838 93.1429 5.43838 90.9263 7.68486L82 16.7315V48L106.382 23.2888C108.539 21.103 108.539 17.5208 106.382 15.2743ZM99.0138 26.0817L88.2304 15.1529L90.3272 13.0278L101.111 23.9566L99.0138 26.0817Z" fill="#4A21EF"/>
<path d="M8.00001 0C3.58173 0 0 3.58172 0 8V88.8136C0 93.2318 3.58172 96.8136 8 96.8136H69.369C73.7873 96.8136 77.369 93.2319 77.369 88.8136V8.00001C77.369 3.58173 73.7873 0 69.369 0H8.00001Z" fill="#6A66FF"/>
<path d="M59.7352 18H15.0468C13.9552 18 13 18.8869 13 20.0468C13 21.1384 13.8869 22.0936 15.0468 22.0936H59.7352C60.8269 22.0936 61.782 21.2067 61.782 20.0468C61.782 18.8869 60.8951 18 59.7352 18Z" fill="white"/>
<path d="M59.7352 73.5364H15.0468C13.9552 73.5364 13 74.4233 13 75.5832C13 76.6748 13.8869 77.63 15.0468 77.63H59.7352C60.8269 77.63 61.782 76.743 61.782 75.5832C61.782 74.4233 60.8951 73.5364 59.7352 73.5364Z" fill="white"/>
<path d="M15.1132 46.1094H32.1699C33.2615 46.1094 34.2167 46.9963 34.2167 48.1562C34.2167 49.316 33.2615 50.203 32.1699 50.203H15.1132C13.9534 50.203 13.0664 49.2478 13.0664 48.1562C13.0664 46.9963 14.0216 46.1094 15.1132 46.1094Z" fill="white"/>
<path d="M41.6534 31.7817H15.1132C14.0216 31.7817 13.0664 32.6687 13.0664 33.8285C13.0664 34.9202 13.9534 35.8753 15.1132 35.8753H41.6534C42.745 35.8753 43.7002 34.9884 43.7002 33.8285C43.6319 32.6687 42.745 31.7817 41.6534 31.7817Z" fill="white"/>
<path d="M15.0468 59.6182H30.8754C32.0352 59.6182 32.9222 60.5051 32.9222 61.665C32.9222 62.8248 31.967 63.7118 30.8754 63.7118H15.0468C13.8869 63.7118 13 62.7566 13 61.665C13 60.5051 13.9552 59.6182 15.0468 59.6182Z" fill="white"/>
</svg>
