<svg width="96" height="108" viewBox="0 0 96 108" fill="none" xmlns="http://www.w3.org/2000/svg">
<path d="M44.7113 22.5743L11.8833 47.4479C8.9793 49.5943 7.33789 53.0034 7.33789 56.5387V107.296H89.0291V56.5387C89.0291 53.0034 87.3877 49.5943 84.4837 47.4479L51.6557 22.5743C49.6355 21.0592 46.7315 21.0592 44.7113 22.5743Z" fill="#939DFF"/>
<path fill-rule="evenodd" clip-rule="evenodd" d="M72.7403 21.5652C73.4979 27.247 72.3615 32.55 69.8363 36.9691C69.0787 38.2317 69.5838 39.8731 70.9726 40.5044C72.7403 41.7671 73.8767 43.9135 73.7504 46.1862C73.4979 49.7215 70.4676 52.373 66.9323 52.373H63.6495C62.7656 52.373 62.0081 53.1306 62.0081 54.0144V55.5296C62.0081 57.5498 60.3667 59.1912 58.3465 59.1912H38.2709C36.2507 59.1912 34.6093 57.5498 34.6093 55.5296V54.0144C34.6093 53.1306 33.8517 52.373 32.9679 52.373H29.6851C26.1498 52.373 22.9932 49.7215 22.867 46.1862C22.7407 43.7873 23.8771 41.7671 25.6447 40.5044C26.7811 39.6206 27.2861 38.1055 26.5286 36.8429C24.5084 33.3075 23.372 29.2672 23.372 24.848C23.372 10.3279 35.9982 -1.4144 50.897 0.227003C62.1343 1.48962 71.2252 10.4542 72.7403 21.5652ZM29.6819 40.8847C29.9345 44.5463 34.4799 47.0715 38.2677 46.6927C41.0455 46.4402 42.8131 44.6726 42.8131 42.6524C42.8131 40.6322 41.0455 38.2332 38.0152 37.0969C33.9748 35.5817 29.4294 36.9706 29.6819 40.8847ZM66.557 40.8847C66.3045 44.5463 61.7591 47.0715 57.9712 46.6927C55.1935 46.4402 53.4258 44.6726 53.4258 42.6524C53.4258 40.6322 55.1934 38.2332 58.2237 37.0969C62.2641 35.5817 66.8095 36.9706 66.557 40.8847ZM47.4899 45.4301L45.7223 48.5866C45.3435 49.0916 45.8485 49.8492 46.4798 49.8492H50.1414C50.7727 49.8492 51.1515 49.2179 50.899 48.5866L49.1313 45.4301C48.6263 44.925 47.7425 44.925 47.4899 45.4301Z" fill="white"/>
<path d="M33.5935 96.4382C33.341 95.8069 32.9622 95.1756 32.4571 94.7968C31.6996 94.0393 31.6996 92.7766 32.5834 92.0191L82.7092 53.5093C83.4668 52.878 84.6032 53.0043 85.2345 53.8881C85.8658 54.6457 86.7496 55.277 88.0122 55.782C89.9062 56.4133 92.0526 56.1608 93.694 54.8982C96.093 52.878 96.598 49.2164 94.5778 46.6912C93.4415 45.176 91.6738 44.4185 89.9062 44.4185C89.0223 44.4185 88.391 43.7872 88.2648 42.9033C88.1385 41.6407 87.5072 40.5044 86.4971 39.6205C84.7294 38.1054 82.2042 38.2316 80.3103 39.6205C78.5426 41.0094 77.9113 43.2821 79.3002 45.8073C79.679 46.5649 79.4265 47.575 78.7951 48.0801L30.0582 85.4535C29.4269 85.9585 28.4168 85.9585 27.7855 85.4535C25.3865 83.5596 21.8512 83.8121 19.5785 86.3373C18.0633 88.105 17.8108 90.6302 18.8209 92.6504C19.7047 94.5443 21.4724 95.6807 23.3663 95.9332C23.9976 96.0595 24.3764 96.6908 24.2501 97.3221C23.9976 98.5847 24.2501 100.1 25.134 101.236C27.0279 103.635 30.6895 103.888 32.8359 101.362C34.0985 100.1 34.3511 98.2059 33.5935 96.4382Z" fill="white"/>
<path d="M35.6133 81.2862L49.6283 70.554L54.9313 74.9731L41.6738 85.074L35.6133 81.2862Z" fill="white"/>
<path d="M77.5356 92.777C77.2831 93.282 76.9043 93.7871 76.5255 94.2921C75.6417 95.3022 74.379 95.9335 72.9902 96.186C72.3589 96.3123 71.9801 96.9436 72.1063 97.4486C72.3589 98.8375 72.1063 100.226 71.2225 101.363C69.3286 103.762 65.667 104.014 63.5205 101.489C62.3842 100.1 62.1317 98.2062 62.763 96.4386C63.0155 95.8072 63.5205 95.1759 63.8993 94.7971C64.6569 94.0396 64.6569 92.777 63.7731 92.0194L44.3288 77.1205L13.521 53.5096C12.7634 52.8783 11.627 53.1308 10.9957 53.8884C10.3644 54.646 9.48059 55.2773 8.21798 55.7823C6.32406 56.4136 4.17761 56.1611 2.53621 54.8985C0.137238 52.8783 -0.367814 49.2167 1.65237 46.6915C2.78873 45.1764 4.55639 44.4188 6.32406 44.4188C7.20789 44.4188 7.83919 43.7875 7.96545 42.9037C8.09171 41.641 8.72302 40.5047 9.73311 39.6208C11.5008 38.1057 14.026 38.232 15.9199 39.7471C17.6876 41.136 18.3189 43.4087 16.93 45.9339C16.5512 46.6915 16.8038 47.7016 17.4351 48.2066L66.172 85.5801C66.8034 86.0851 67.8134 86.0851 68.4447 85.7063C70.8437 83.8124 74.379 84.0649 76.6517 86.5901C78.1669 88.2315 78.5457 90.7568 77.5356 92.777Z" fill="white"/>
<path d="M76.5268 94.2922C75.6429 95.3023 74.3803 95.9336 72.9914 96.1861C72.3601 96.3124 71.9814 96.9437 72.1076 97.4487C72.3601 98.8376 72.1076 100.226 71.2238 101.363C69.3299 103.762 65.6683 104.014 63.5218 101.489C62.3855 100.1 62.133 98.2063 62.7643 96.4386C63.0168 95.8073 63.5218 95.176 63.9006 94.7972C64.6582 94.0396 64.6582 92.777 63.7744 92.0195L44.3301 77.1206L45.8452 75.9843C47.7391 74.4691 50.8957 74.4691 52.7896 75.9843L76.5268 94.2922Z" fill="white"/>
<path d="M89.0428 107.423H7.35156V57.2971L48.1341 88.7363L89.0428 57.2971V107.423Z" fill="#4A21EF"/>
<path d="M89.0428 107.423L51.6694 78.7614C49.7755 77.2462 46.6189 77.2462 44.725 78.7614L7.35156 107.423H89.0428Z" fill="#5C33FF"/>
</svg>
