<svg width="98" height="88" viewBox="0 0 98 88" fill="none" xmlns="http://www.w3.org/2000/svg">
<path d="M66.7734 25.2568C64.1672 25.2568 61.6153 25.5826 59.172 26.1799C59.2263 26.8314 59.2263 27.483 59.2263 28.1888C59.2263 42.6316 49.2901 54.794 35.8789 58.1603C36.9105 74.3406 50.3217 87.1002 66.7734 87.1002C83.8767 87.1002 97.7222 73.2546 97.7222 56.1514C97.6679 39.1567 83.8224 25.2568 66.7734 25.2568Z" fill="#939DFF"/>
<path d="M75.7877 60.278C75.7877 57.9976 74.376 56.2601 72.1498 55.7714C74.0502 55.2827 75.2447 53.7625 75.2447 51.9164C75.2447 49.5274 73.3443 47.9528 70.2494 47.5184V43.772H67.3717V47.4098H65.9058V43.772H63.0281V47.4098H61.2363H57.707V51.0477H60.1504V61.5811H57.707V65.219H60.1504H62.9195V68.6939H65.7972V65.219H67.2632V68.6939H70.1408V65.1647C73.6158 64.7846 75.7877 62.9928 75.7877 60.278ZM70.4123 52.7308C70.4123 53.8711 69.6522 54.5226 68.3491 54.5226H64.8198V51.0477H68.3491C69.6522 50.9934 70.4123 51.6449 70.4123 52.7308ZM68.3491 61.5811H64.8198V57.8347H68.3491C69.978 57.8347 71.0096 58.5405 71.0096 59.6264C70.9553 60.8753 69.978 61.5811 68.3491 61.5811Z" fill="white"/>
<path d="M29.9085 76.0782C23.8273 76.0782 18.8863 71.1373 18.8863 65.0561V65.0018H20.5695C21.4383 65.0018 21.8726 63.9702 21.2211 63.3729L18.5063 60.6581C18.1262 60.278 17.5289 60.278 17.1489 60.6581L14.4341 63.3729C13.8368 63.9702 14.2712 65.0018 15.0856 65.0018H16.6059V65.0561C16.6059 72.3861 22.5785 78.3587 29.9085 78.3587C30.5057 78.3587 31.0487 77.87 31.0487 77.2184C31.0487 76.5669 30.56 76.0782 29.9085 76.0782Z" fill="#939DFF"/>
<path d="M58.1969 5.54752C64.278 5.54752 69.219 10.4885 69.219 16.5696V16.6239H67.5358C66.6671 16.6239 66.2327 17.6556 66.8842 18.2528L69.599 20.9676C69.9791 21.3477 70.5764 21.3477 70.9565 20.9676L73.6713 18.2528C74.2685 17.6556 73.8342 16.6239 73.0197 16.6239H71.4994V16.5696C71.4994 9.23967 65.5268 3.26709 58.1969 3.26709C57.5996 3.26709 57.0566 3.75576 57.0566 4.40731C57.0566 5.05887 57.5996 5.54752 58.1969 5.54752Z" fill="#6A66FF"/>
<path d="M52.6588 14.9792C47.9716 6.30285 38.7966 0.46875 28.2254 0.46875C12.8673 0.46875 0.451172 12.8849 0.451172 28.243C0.451172 43.6012 12.8673 56.0173 28.2254 56.0173C28.7241 56.0173 29.1729 56.0173 29.6715 55.9674C29.871 55.9674 30.0704 55.9176 30.2699 55.9176C30.5192 55.9176 30.8184 55.8677 31.0677 55.8677C45.0795 54.4217 55.9997 42.6039 55.9997 28.243C56.0496 23.4062 54.803 18.9185 52.6588 14.9792Z" fill="#4A21EF"/>
<path d="M29.6963 37.7279V41.963H26.0042V37.6736C23.398 37.2935 20.9004 36.2076 19 34.6873L20.9547 30.7237C22.9636 32.4612 25.9499 33.6557 28.0132 33.6557C29.5335 33.6557 30.4565 33.1127 30.4565 32.0811C30.4565 28.769 20.2488 30.778 20.2488 23.8824C20.2488 20.7875 22.475 18.67 26.0042 18.0727V14.0005H29.6963V18.0727C31.9768 18.3442 34.1486 19.1043 35.7775 20.1359L33.8771 24.1539C31.8139 23.0136 29.2077 22.0906 27.6331 22.0906C26.4386 22.0906 25.6241 22.525 25.6241 23.448C25.6241 26.6515 35.8318 24.8597 35.8318 31.8096C35.7775 35.2846 33.1713 37.2392 29.6963 37.7279Z" fill="white"/>
</svg>
