<svg width="164" height="145" viewBox="0 0 164 145" fill="none" xmlns="http://www.w3.org/2000/svg">
<path d="M79.4877 90.4423H13.3555V27.5947H19.9249V83.8728H72.9183V53.6535H79.4877V90.4423Z" fill="#5C33FF"/>
<path d="M48.1733 119.127H7.88086V112.558H41.6039V87.1562H48.1733V119.127Z" fill="#5C33FF"/>
<path d="M136.639 119.129H72.916V87.1574H79.4854V112.559H130.07V24.5288H136.639V119.129Z" fill="#5C33FF"/>
<path d="M133.357 83.8716H101.824V90.441H133.357V83.8716Z" fill="#5C33FF"/>
<path d="M156.133 51.6826H133.359V58.252H156.133V51.6826Z" fill="#5C33FF"/>
<path d="M79.4854 115.844H72.916V136.866H79.4854V115.844Z" fill="#5C33FF"/>
<path d="M7.88113 123.507C12.114 123.507 15.5455 120.076 15.5455 115.843C15.5455 111.61 12.114 108.179 7.88113 108.179C3.64823 108.179 0.216797 111.61 0.216797 115.843C0.216797 120.076 3.64823 123.507 7.88113 123.507Z" fill="#4A21EF"/>
<path d="M16.6409 35.2583C20.8738 35.2583 24.3052 31.8269 24.3052 27.594C24.3052 23.3611 20.8738 19.9297 16.6409 19.9297C12.408 19.9297 8.97656 23.3611 8.97656 27.594C8.97656 31.8269 12.408 35.2583 16.6409 35.2583Z" fill="#4A21EF"/>
<path d="M76.2014 144.311C80.4343 144.311 83.8658 140.879 83.8658 136.646C83.8658 132.413 80.4343 128.982 76.2014 128.982C71.9685 128.982 68.5371 132.413 68.5371 136.646C68.5371 140.879 71.9685 144.311 76.2014 144.311Z" fill="#4A21EF"/>
<path d="M101.824 94.8208C106.057 94.8208 109.489 91.3894 109.489 87.1565C109.489 82.9236 106.057 79.4922 101.824 79.4922C97.5916 79.4922 94.1602 82.9236 94.1602 87.1565C94.1602 91.3894 97.5916 94.8208 101.824 94.8208Z" fill="#4A21EF"/>
<path d="M76 58C92.0163 58 105 45.0163 105 29C105 12.9837 92.0163 0 76 0C59.9838 0 47 12.9837 47 29C47 45.0163 59.9838 58 76 58Z" fill="#4A21EF"/>
<path d="M156.129 62.6314C160.362 62.6314 163.794 59.2 163.794 54.9671C163.794 50.7342 160.362 47.3027 156.129 47.3027C151.896 47.3027 148.465 50.7342 148.465 54.9671C148.465 59.2 151.896 62.6314 156.129 62.6314Z" fill="#4A21EF"/>
<path d="M133.358 30.6597C137.591 30.6597 141.022 27.2283 141.022 22.9954C141.022 18.7625 137.591 15.3311 133.358 15.3311C129.125 15.3311 125.693 18.7625 125.693 22.9954C125.693 27.2283 129.125 30.6597 133.358 30.6597Z" fill="#4A21EF"/>
</svg>
