<svg width="175" height="139" viewBox="0 0 175 139" fill="none" xmlns="http://www.w3.org/2000/svg">
<g id="&#231;&#188;&#150;&#231;&#187;&#132; 2">
<path id="&#231;&#159;&#169;&#229;&#189;&#162;" fill-rule="evenodd" clip-rule="evenodd" d="M0.177734 18.0647C0.177734 14.215 3.29853 11.0942 7.14822 11.0942H167.469C171.319 11.0942 174.44 14.215 174.44 18.0647V119.834C174.44 125.127 170.149 129.418 164.855 129.418H9.76216C4.46883 129.418 0.177734 125.127 0.177734 119.834V18.0647Z" fill="url(#paint0_linear_3761_188319)"/>
<rect id="&#231;&#159;&#169;&#229;&#189;&#162;_2" x="77.9414" y="118.745" width="18.7332" height="19.2778" rx="9.36659" fill="#4D26F0"/>
<path id="&#229;&#189;&#162;&#231;&#138;&#182;&#231;&#187;&#147;&#229;&#144;&#136;" d="M96.8139 0.42096C88.6958 0.42096 87.3084 5.88764 87.3084 5.88764C87.3084 5.88764 85.4615 0.42096 78.0807 0.42096L15.8602 0.420898C13.9354 0.420898 12.375 1.98129 12.375 3.90614V115.26C12.375 117.185 13.9354 118.745 15.8603 118.745L77.9417 118.745C86.2365 118.745 87.3082 127.676 87.3082 127.676C87.3082 127.676 88.0188 118.745 96.6748 118.745L158.755 118.745C160.68 118.745 162.24 117.185 162.24 115.26V3.90614C162.24 1.9813 160.68 0.420898 158.755 0.420898L96.8139 0.42096Z" fill="url(#paint1_linear_3761_188319)"/>
<path id="Line 391" opacity="0.3" d="M87.3164 5.99023L87.3164 126.539" stroke="#C1BBE4" stroke-width="0.361579" stroke-linecap="round"/>
<path id="&#229;&#189;&#162;&#231;&#138;&#182;" fill-rule="evenodd" clip-rule="evenodd" d="M69.5747 101.902C70.4168 101.902 71.0995 102.629 71.0995 103.526C71.0995 104.424 70.4168 105.151 69.5747 105.151H26.5346C25.6924 105.151 25.0098 104.424 25.0098 103.526C25.0098 102.629 25.6924 101.902 26.5346 101.902H69.5747ZM78.2878 87.8057C79.1299 87.8057 79.8126 88.5329 79.8126 89.4301C79.8126 90.3272 79.1299 91.0545 78.2878 91.0545H26.5346C25.6924 91.0545 25.0098 90.3272 25.0098 89.4301C25.0098 88.5329 25.6924 87.8057 26.5346 87.8057H78.2878ZM87.0009 73.7093C87.843 73.7093 88.5257 74.4366 88.5257 75.3337C88.5257 76.2309 87.843 76.9581 87.0009 76.9581H26.5346C25.6924 76.9581 25.0098 76.2309 25.0098 75.3337C25.0098 74.4366 25.6924 73.7093 26.5346 73.7093H87.0009ZM95.714 59.613C96.5562 59.613 97.2388 60.3402 97.2388 61.2374C97.2388 62.1345 96.5562 62.8618 95.714 62.8618H26.5346C25.6924 62.8618 25.0098 62.1345 25.0098 61.2374C25.0098 60.3402 25.6924 59.613 26.5346 59.613H95.714ZM79.8126 45.5166C80.6547 45.5166 81.3374 46.2439 81.3374 47.141C81.3374 48.0381 80.6547 48.7654 79.8126 48.7654H26.5346C25.6924 48.7654 25.0098 48.0381 25.0098 47.141C25.0098 46.2439 25.6924 45.5166 26.5346 45.5166H79.8126Z" fill="#939DFF"/>
<path id="Terminology" d="M35.7285 23.4151H32.3009V34.0942H28.8138V23.4151H25.3862V20.3441H35.7285V23.4151ZM46.0634 29.5769L39.327 29.9732C39.4855 31.1619 40.3771 31.7167 41.9819 31.7167C42.6357 31.7167 43.3292 31.6374 44.0425 31.4789C44.7557 31.3204 45.2907 31.1421 45.6275 30.9638V33.48C44.934 33.9357 43.2103 34.2924 41.3281 34.2924C37.8807 34.2924 35.9984 33.0045 35.9984 28.7448C35.9984 24.4652 37.841 23.1972 41.4668 23.1972C45.152 23.1972 46.1822 24.8218 46.1822 27.9721C46.1822 28.5665 46.1426 29.1014 46.0634 29.5769ZM39.327 27.6947L43.1707 27.3975C43.1707 26.288 42.7942 25.6738 41.4668 25.6738C39.961 25.6738 39.4063 26.1889 39.327 27.6947ZM54.7586 23.1972L54.6793 26.1691H54.3821C52.9358 26.1691 51.7668 26.7833 51.5489 28.2693V34.0942H48.2005V23.3953H51.5489V25.2775C52.1235 23.6925 53.1141 23.1972 54.5406 23.1972H54.7586ZM72.6328 27.1201V34.0942H69.2845V27.6353C69.2845 26.288 68.8882 25.8719 67.8381 25.8719C66.788 25.8719 66.3125 26.288 66.0946 27.2588V34.0942H62.7462V27.6353C62.7462 26.288 62.3103 25.8719 61.2999 25.8719C60.2696 25.8719 59.8734 26.2087 59.6554 27.0607V34.0942H56.3269V23.3953H59.6554V24.5445C60.2102 23.6727 61.1216 23.1972 62.6472 23.1972C64.2124 23.1972 65.1832 23.6529 65.6785 24.6039C66.2135 23.6727 67.3428 23.1972 69.0269 23.1972C71.4639 23.1972 72.6328 24.3265 72.6328 27.1201ZM74.9345 20.364C74.9345 18.7987 75.1723 18.6799 76.7771 18.6799C78.4216 18.7195 78.5206 18.7591 78.5999 20.364C78.5206 22.0084 78.4216 22.0679 76.7771 22.1075C75.1128 22.0679 74.9939 22.0084 74.9345 20.364ZM75.093 34.0942V23.3953H78.4414V34.0942H75.093ZM91.1606 26.8229V34.0942H87.8122V27.6353C87.8122 26.2285 87.4754 25.8719 86.1876 25.8719C85.1375 25.8719 84.5431 26.2285 84.3054 27.0211V34.0942H80.9768V23.3953H84.3054V24.5841C84.8601 23.7123 86.0291 23.1972 87.6339 23.1972C90.1699 23.1972 91.1606 24.2869 91.1606 26.8229ZM93.1731 28.7448C93.1731 24.4652 95.0157 23.1972 98.5424 23.1972C102.049 23.1972 103.892 24.4652 103.892 28.7448C103.892 33.0243 102.049 34.2924 98.5424 34.2924C95.0157 34.2924 93.1731 33.0243 93.1731 28.7448ZM98.5424 31.8158C100.068 31.8158 100.504 31.1223 100.504 28.7448C100.504 26.3672 100.048 25.6342 98.5424 25.6342C97.0168 25.6342 96.5809 26.3672 96.5809 28.7448C96.5809 31.1223 97.0366 31.8158 98.5424 31.8158ZM105.955 31.2214V19.0365H109.303V30.4289C109.303 31.3601 109.521 31.5978 110.155 31.5978C110.333 31.5978 110.512 31.578 110.65 31.5582V34.0942C110.234 34.1735 109.818 34.2131 109.363 34.2131C106.708 34.2131 105.955 33.3215 105.955 31.2214ZM111.612 28.7448C111.612 24.4652 113.455 23.1972 116.981 23.1972C120.488 23.1972 122.331 24.4652 122.331 28.7448C122.331 33.0243 120.488 34.2924 116.981 34.2924C113.455 34.2924 111.612 33.0243 111.612 28.7448ZM116.981 31.8158C118.507 31.8158 118.943 31.1223 118.943 28.7448C118.943 26.3672 118.487 25.6342 116.981 25.6342C115.456 25.6342 115.02 26.3672 115.02 28.7448C115.02 31.1223 115.476 31.8158 116.981 31.8158ZM128.436 38.0568C127.425 38.0568 126.137 37.9577 125.206 37.7992V35.1839C126.018 35.4019 127.207 35.5406 128.138 35.5406C130.457 35.5406 131.328 34.9858 131.328 33.1432V32.7272C130.873 33.6187 129.961 34.0942 128.198 34.0942C126.593 34.0942 125.464 33.6385 124.83 32.7073C124.215 31.7761 123.898 30.4289 123.898 28.6457C123.898 26.9814 124.215 25.654 124.85 24.6831C125.503 23.6925 126.613 23.1972 128.198 23.1972C130.001 23.1972 130.912 23.6331 131.328 24.5246V23.3953H134.657V33.2225C134.657 34.8075 134.181 36.0161 133.25 36.8284C132.319 37.6407 130.714 38.0568 128.436 38.0568ZM129.288 31.7365C131.229 31.6771 131.467 30.8251 131.487 28.6457C131.487 26.605 131.209 25.6342 129.288 25.6342C127.683 25.6342 127.306 26.7437 127.306 28.6457C127.306 30.627 127.703 31.7365 129.288 31.7365ZM140.154 33.9754L136.033 23.3953H139.757L141.996 30.5279H142.115L144.195 23.3953H147.821L144.354 32.846C142.63 37.2643 141.64 37.9577 137.519 38.0568V35.1641C139.242 35.1641 139.916 34.7877 140.154 33.9754Z" fill="#6A66FF"/>
</g>
<defs>
<linearGradient id="paint0_linear_3761_188319" x1="0.177734" y1="11.0942" x2="0.177734" y2="129.418" gradientUnits="userSpaceOnUse">
<stop stop-color="#8692FF"/>
<stop offset="1" stop-color="#4A21EF"/>
</linearGradient>
<linearGradient id="paint1_linear_3761_188319" x1="20.6527" y1="-32.6288" x2="19.5565" y2="82.7495" gradientUnits="userSpaceOnUse">
<stop stop-color="#DED8FF"/>
<stop offset="1" stop-color="white"/>
</linearGradient>
</defs>
</svg>
