<svg width="155" height="136" viewBox="0 0 155 136" fill="none" xmlns="http://www.w3.org/2000/svg">
<path d="M10.0304 58.764L12.3881 58.5702C12.3881 58.5702 12.2267 56.6001 14.2937 56.4063C15.3595 56.3094 15.9731 56.9553 16.2315 57.4721C16.5545 58.0857 16.5222 58.7963 16.1992 59.3776C15.844 60.0559 15.0365 60.7341 13.4217 60.5726L13.8415 65.8694L16.1669 65.6756L15.9085 62.5751C15.9085 62.5751 19.106 61.477 18.8153 57.892C18.5569 54.4684 15.3918 53.8871 14.0676 54.0163C13.0664 54.1132 9.64287 54.6299 10.0304 58.764Z" fill="#4A21EF"/>
<path d="M16.2703 66.8136L13.9199 66.9995L14.0931 69.1889L16.4435 69.003L16.2703 66.8136Z" fill="#4A21EF"/>
<path d="M122.723 65.6488H123.983C123.983 65.6488 123.983 64.583 125.081 64.5507C125.662 64.5507 125.953 64.906 126.082 65.1966C126.211 65.5196 126.179 65.9072 125.985 66.2301C125.759 66.5854 125.307 66.9084 124.435 66.7469V69.6214H125.694V67.9419C125.694 67.9419 127.471 67.4897 127.471 65.5519C127.471 63.6786 125.791 63.2588 125.081 63.2588C124.564 63.2911 122.691 63.4203 122.723 65.6488Z" fill="#4A21EF"/>
<path d="M125.759 70.2656H124.467V71.4606H125.759V70.2656Z" fill="#4A21EF"/>
<path d="M9.40625 105.597L11.0211 105.823C11.0211 105.823 11.2149 104.466 12.636 104.628C13.3788 104.725 13.7018 105.274 13.7987 105.661C13.9279 106.113 13.7987 106.598 13.508 106.953C13.1527 107.373 12.5068 107.696 11.441 107.341L10.9242 111.023L12.5391 111.249L12.8298 109.085C12.8298 109.085 15.1552 108.826 15.5104 106.339C15.8657 103.949 13.7987 103.11 12.8944 102.981C12.1838 102.884 9.76152 102.722 9.40625 105.597Z" fill="#4A21EF"/>
<path d="M12.4198 112.021L10.7891 111.788L10.5703 113.323L12.201 113.555L12.4198 112.021Z" fill="#4A21EF"/>
<path d="M39.1441 29.9159L41.2757 29.4638C41.2757 29.4638 40.8881 27.6551 42.7614 27.2353C43.7303 27.0092 44.3762 27.5259 44.6669 27.9781C45.0222 28.4949 45.0868 29.1408 44.893 29.7545C44.6669 30.4327 43.9887 31.1432 42.4707 31.2078L43.5042 36.0201L45.6035 35.568L44.9899 32.7581C44.9899 32.7581 47.7997 31.337 47.0892 28.075C46.411 24.9422 43.4396 24.813 42.2446 25.1036C41.3726 25.2328 38.3043 26.1372 39.1441 29.9159Z" fill="#4A21EF"/>
<path d="M45.8846 36.5224L43.7383 36.9878L44.1763 39.0079L46.3226 38.5425L45.8846 36.5224Z" fill="#4A21EF"/>
<path d="M138 100.874L139.26 101.165C139.26 101.165 139.486 100.131 140.584 100.358C141.165 100.487 141.359 100.907 141.424 101.23C141.488 101.585 141.359 101.94 141.101 102.231C140.81 102.521 140.293 102.748 139.486 102.425L138.872 105.234L140.099 105.493L140.455 103.846C140.455 103.846 142.263 103.781 142.683 101.875C143.071 100.067 141.553 99.2594 140.842 99.1302C140.325 98.9364 138.484 98.6458 138 100.874Z" fill="#4A21EF"/>
<path d="M139.974 105.999L138.713 105.72L138.455 106.887L139.716 107.165L139.974 105.999Z" fill="#4A21EF"/>
<path d="M146 37.3624H148.358C148.358 37.3624 148.358 35.3923 150.393 35.36C151.458 35.3277 152.008 36.0382 152.234 36.5873C152.492 37.2009 152.427 37.9115 152.072 38.4928C151.685 39.1388 150.813 39.7524 149.23 39.4617V44.7585H151.555V41.6579C151.555 41.6579 154.817 40.8182 154.817 37.2332C154.817 33.8097 151.749 33.0023 150.425 33.0023C149.391 32.97 145.968 33.2284 146 37.3624Z" fill="#4A21EF"/>
<path d="M151.561 45.8242H149.203V48.0204H151.561V45.8242Z" fill="#4A21EF"/>
<path d="M87 3.86249L89.5192 4.41154C89.5192 4.41154 90.0037 2.27992 92.1999 2.73208C93.3626 2.95816 93.7824 3.86249 93.8793 4.47614C94.0085 5.21897 93.7501 5.96181 93.2334 6.47857C92.652 7.09222 91.5539 7.51208 89.9391 6.83384L88.7118 12.5828L91.231 13.1318L91.9738 9.7729C91.9738 9.7729 95.688 9.64371 96.5277 5.76803C97.3351 2.05384 94.2023 0.471267 92.7812 0.148294C91.6831 -0.0777872 87.9366 -0.626841 87 3.86249Z" fill="#4A21EF"/>
<path d="M90.9704 14.3121L88.416 13.7476L87.8933 16.1127L90.4476 16.6772L90.9704 14.3121Z" fill="#4A21EF"/>
<path d="M73.8482 5L66 7.58379L68.7776 15.3351L73.8482 5Z" fill="#4A21EF"/>
<path d="M74.7243 38.5894L72.1728 33.7771C77.1789 31.1287 79.7304 27.253 79.3428 22.8929C78.9552 18.1775 75.1764 13.8496 69.9766 12.1056L71.6883 6.93799C79.0521 9.39259 84.1874 15.4968 84.7687 22.473C85.3501 28.9971 81.6682 34.9075 74.7243 38.5894Z" fill="#4A21EF"/>
<path d="M71.787 70.1694C55.5092 67.9409 42.3318 63.0963 32.6749 55.7971C24.4714 49.596 21.2094 43.395 20.1436 41.3279C17.3337 35.9989 16.1064 30.2176 16.6232 24.5979C17.5921 14.2951 25.0851 8.09398 29.8651 6.44681C33.9345 5.05803 39.3282 5.02573 42.8809 5.63938C46.7889 6.31762 50.5677 7.64181 54.1204 9.54735L50.8583 15.587C47.9516 14.0044 44.8833 12.9386 41.7182 12.3895C38.6177 11.8728 34.4836 12.0988 32.0936 12.9063C29.5744 13.7783 24.1162 17.9447 23.4379 25.2116C23.0503 29.4748 23.987 33.9318 26.1832 38.0982C27.0875 39.8099 29.8328 45.0098 36.809 50.2743C45.5293 56.8629 57.6085 61.2554 72.7236 63.3224L71.787 70.1694Z" fill="#4A21EF"/>
<path d="M35.8726 49.5952L29.3809 53.1156L32.223 55.4733L38.5533 51.5977L35.8726 49.5952Z" fill="#4A21EF"/>
<path d="M57.8652 60.3823C57.8652 60.3823 57.8652 66.8095 58.931 67.7784L61.1919 68.3275L59.4478 60.8022L57.8652 60.3823Z" fill="#4A21EF"/>
<path d="M49.0469 17.6854L57.6057 15.36L55.0865 6.8335L49.0469 17.6854Z" fill="#4A21EF"/>
<path fill-rule="evenodd" clip-rule="evenodd" d="M134.446 111.748L126.878 118.857L126.378 115.91C116.347 116.795 97.8213 115.996 83.5694 101.412L88.299 96.769C100.423 109.149 116.306 110.041 125.264 109.344L124.754 106.34L134.446 111.748Z" fill="#4A21EF"/>
<path d="M67.3592 123.515C58.3805 122.029 45.6231 118.186 35.8693 108.464C26.7615 99.4209 22.4013 86.7281 24.5329 75.3594C25.631 69.5136 28.4732 63.797 32.7365 58.8878C36.709 54.3338 41.7797 50.5228 47.4963 47.8421C56.9272 43.4173 68.3927 41.5441 82.6358 42.0932L82.4097 47.5514C69.0709 47.0346 58.4128 48.7464 49.8217 52.7836C39.3251 57.6928 31.7029 66.736 29.8943 76.3606C28.0856 85.9852 31.8644 96.8048 39.7127 104.588C48.4653 113.276 60.06 116.732 68.2635 118.121L67.3592 123.515Z" fill="#4A21EF"/>
<path d="M53.8586 129.918H48.4004C48.788 122.231 52.6313 116.676 61.3516 110.637C69.3613 105.114 81.7635 98.9128 98.9134 90.354C105.211 87.2212 112.317 83.6685 120.133 79.6959C124.751 77.3382 128.853 74.0116 131.921 70.0713L136.217 73.4302C132.664 78.0164 127.949 81.8598 122.62 84.5728C114.804 88.5454 107.666 92.0981 101.368 95.2309C68.134 111.799 54.4077 118.388 53.8586 129.918Z" fill="#4A21EF"/>
<path d="M10.6596 89.9942C20.3795 99.8684 36.0716 102.504 45.3017 99.174C47.9813 98.213 52.9767 96.1055 56.1541 92.8418C58.7097 90.2355 61.4411 85.598 60.8146 81.0483C60.5118 78.8991 59.4573 76.4927 57.8972 74.4935C56.1566 72.2188 53.9991 70.6717 51.8107 70.152L50.3459 76.3525C51.9416 76.7305 54.1559 79.7626 54.4814 81.9348C54.7418 83.6725 53.4866 86.4489 51.5759 88.3751C49.8723 90.0974 46.7981 91.8546 43.1108 93.1731C39.4691 94.4919 34.2619 94.4965 29.1561 93.2231C23.3893 91.7845 18.2509 88.8664 14.6728 85.0014L10.0026 89.3268C10.2518 89.5799 10.4557 89.7871 10.6596 89.9942Z" fill="#4A21EF"/>
<path d="M106.338 102.854C101.256 102.384 96.527 101.265 92.5874 100.025C84.1381 97.3942 75.086 91.4643 68.9873 87.2672C67.4626 86.2179 65.8212 85.0281 63.9344 83.6859C62.6902 82.7599 61.4431 81.866 60.2865 81.0454C56.0632 77.9625 52.2867 75.3102 50.151 74.2044C51.0227 72.1443 51.9499 70.1866 52.8681 68.3255C55.4684 69.6689 59.423 72.4999 64.0727 75.8818C65.2263 76.7345 66.4413 77.6254 67.6884 78.5192C69.5109 79.8555 71.1261 80.978 72.6508 82.0273C78.4106 86.0308 86.9136 91.5856 94.5124 93.9429C103.026 96.5795 115.45 98.6697 126.262 93.6372C131.313 91.2827 135.535 87.7163 138.182 83.6473C141.175 78.9941 142.146 73.7645 141.047 68.1164C139.42 59.7597 131.539 54.4896 121.438 54.9821C115.148 55.3083 109.548 57.2876 104.583 59.0663C100.859 60.4083 97.6085 61.5346 94.6343 61.7784L94.1182 55.4382C96.2764 55.2487 99.1261 54.2474 102.447 53.0626C107.543 51.2638 113.884 48.9961 121.118 48.6276C127.637 48.2901 133.62 49.8817 138.337 53.2373C142.995 56.5227 146.18 61.3583 147.259 66.8749C148.669 74.0762 147.374 81.0597 143.507 87.0917C140.177 92.2327 135.144 96.5025 128.94 99.399C121.484 102.861 113.541 103.521 106.338 102.854Z" fill="#4A21EF"/>
<path d="M91.5188 58.4448C91.5188 58.5417 92.52 64.7751 92.52 64.7751C91.874 65.0335 91.0666 65.2273 90.1946 65.421L89.1934 59.0585C90.0331 58.9616 90.8082 58.7355 91.5188 58.4448Z" fill="#4A21EF"/>
<path d="M78.4689 83.7978C75.1745 83.7978 72.0094 83.2487 69.2318 82.1829C68.0691 81.7308 66.4543 81.0202 64.7425 80.2774C63.2891 79.6314 61.8034 78.9855 60.3824 78.4041C58.3799 77.5644 55.7315 77.6613 55.1825 78.7271L50.3379 76.1756C52.4695 72.0739 58.2507 71.5894 62.4817 73.3657C63.9674 73.9794 65.4853 74.6576 66.9387 75.3036C68.5859 76.0464 70.1361 76.7247 71.202 77.1122C74.7547 78.501 79.5024 78.7594 83.8302 77.7582C89.3854 76.4986 96.3616 72.1385 100.076 67.5845C104.016 62.7722 105.308 57.1525 103.628 52.1787C102.046 47.4956 94.1654 44.3628 89.8375 44.7826L89.2885 39.3567C95.5218 38.7107 106.18 42.7156 108.796 50.4346C111.089 57.2171 109.442 64.7101 104.307 71.0403C99.8497 76.4986 91.7431 81.5693 85.0252 83.0872C82.8613 83.5394 80.6651 83.7978 78.4689 83.7978Z" fill="#4A21EF"/>
<path fill-rule="evenodd" clip-rule="evenodd" d="M67.2304 116L73.7637 121.569L66.2156 125.7L67.2304 116ZM98.8171 118.166L92.2838 112.598L92.0741 114.602C78.931 112.358 73.6152 106.63 71.597 103.33C69.6589 100.152 69.5806 97.3402 70.1099 95.8831L65.0211 94.0002C63.753 97.4912 64.4802 102.016 66.965 106.149C72.5332 115.332 83.95 118.742 91.5059 120.032L91.2689 122.297L98.8171 118.166ZM7.53725 82.4555L9.30137 90.8569L16.0355 83.8028L7.53725 82.4555Z" fill="#4A21EF"/>
<path d="M96.1343 16.3931L89.6426 25.4363L100.042 28.7629L96.1343 16.3931Z" fill="#4A21EF"/>
<path d="M127.752 81.5368L125.556 76.5307H125.524C125.556 76.4984 129.367 74.6898 133.146 68.1657C136.957 61.6094 136.925 51.5972 136.925 50.9513C136.279 38.6137 130.821 30.0226 120.647 25.4687L120.485 25.4041C113.574 22.3358 105.596 22.2389 98.5879 25.1457L96.1979 26.1146L94.1309 21.0762L96.5209 20.1073C104.918 16.6515 114.478 16.7484 122.714 20.4303L122.908 20.5272C134.922 25.9208 141.673 36.3852 142.383 50.7575V50.8221C142.383 51.3065 142.577 62.8367 137.894 70.911C133.178 78.9853 128.301 81.2784 127.752 81.5368Z" fill="#4A21EF"/>
<path d="M107.632 78.4703L102.666 74.5584C103.961 72.8218 105.216 71.444 106.69 69.8959C108.52 67.9484 110.439 65.9267 112.286 63.2429C118.96 53.4397 120.281 47.3288 120.487 38.8617L126.848 39.0106C126.624 48.5512 125.093 55.8131 117.549 66.839C115.398 69.9716 113.232 72.2566 111.313 74.2784C109.947 75.6903 108.67 77.0278 107.632 78.4703Z" fill="#4A21EF"/>
<path d="M129.665 40.3593L123.609 31.0006L117.001 40.0279L129.665 40.3593Z" fill="#4A21EF"/>
<path d="M44.9987 124.496L50.7689 134.033L57.647 125.21L44.9987 124.496Z" fill="#4A21EF"/>
<path d="M82.8689 99.776C101.523 97.6393 114.913 80.7851 112.776 62.1311C110.639 43.4772 93.7851 30.0873 75.1311 32.224C56.4772 34.3607 43.0873 51.2149 45.224 69.8689C47.3607 88.5228 64.2149 101.913 82.8689 99.776Z" fill="url(#paint0_linear_3944_187305)"/>
<path d="M79.3743 46C78.5577 46 77.9821 46.2383 77.376 46.716L76.8718 47.1506C76.543 47.4399 76.3632 47.5404 76.04 47.5907C75.9238 47.6087 75.7355 47.5778 75.42 47.4728L75.0906 47.3543L74.9091 47.2848C73.9966 46.9336 73.5877 46.811 72.9751 46.7931C71.4431 46.7483 69.7373 47.793 69.3559 48.8772C69.0445 49.7623 69.3665 50.4383 70.0349 51.1067L70.3943 51.4408L70.7494 51.7308L72.3237 52.8837L72.5921 53.0928C72.8649 53.3122 73.0569 53.4929 73.1788 53.6416C73.1829 53.9355 73.1782 54.1879 73.1569 54.4341L73.1408 54.5869L73.1215 54.7097L73.3183 54.5385C66.4576 60.5003 62 67.2721 62 72.7175C62 80.0227 68.2191 85 79.3743 85C91.1635 85 96.5682 80.2251 96.5682 72.7175L96.56 72.2804C96.4134 68.3407 94.2827 64.228 89.9615 58.975L88.9651 57.7885L87.896 56.5621C87.5275 56.1464 87.1468 55.7237 86.7538 55.2935L86.3 54.8001L86.3078 54.8397C86.2926 54.7647 86.2797 54.666 86.2701 54.5504L86.2527 54.2044L86.2516 53.8879L86.262 53.6022L86.299 53.5699L86.7331 53.135L87.0447 52.8419L87.8317 52.1382L88.2921 51.7081L88.5226 51.4709L88.7319 51.2325C89.3526 50.4926 89.6539 49.7494 89.3537 48.8834C88.9209 47.6344 87.2196 46.6911 85.5818 46.7952C85.1625 46.8219 84.8629 46.8924 84.3821 47.0711L83.618 47.3728L83.2824 47.4954C83.0461 47.5738 82.9091 47.5955 82.8036 47.5834C82.596 47.5595 82.4329 47.4818 82.1083 47.2344L81.7963 46.9878C80.948 46.3117 80.3302 46 79.3743 46Z" fill="url(#paint1_linear_3944_187305)"/>
<path d="M84.0948 72.9451C83.9376 73.8785 83.3707 75.9185 80.2985 76.1222V77.9091H78.1287V76.1362C76.8321 75.9694 75.637 75.6625 74.4082 75.2862L75.0597 72.9532C76.0338 73.3007 77.3167 73.6734 78.4464 73.7928C79.9784 73.9567 81.0122 73.6675 81.1081 72.6514C81.3266 70.8704 74.5001 70.5568 74.5646 67.3436C74.4711 64.9833 76.3426 63.9548 78.2077 63.8124V61.9546H80.3768V63.7268C81.6089 63.7416 82.5845 63.9836 83.5344 64.3643L82.9328 66.563C81.9781 66.2339 81.0025 65.9255 79.8341 65.9255C79.0777 65.9255 77.4892 65.9277 77.4336 66.8809C77.4336 68.5248 80.438 68.609 81.4355 68.997C82.1628 69.2796 82.6692 69.5563 83.1868 70.0189C84.0908 70.8268 84.2779 71.8679 84.0948 72.9451Z" fill="url(#paint2_linear_3944_187305)"/>
<rect x="71.75" y="52.2046" width="15.9545" height="2.65909" rx="1.32955" fill="#A8B0FF"/>
<defs>
<linearGradient id="paint0_linear_3944_187305" x1="48.7559" y1="14.3396" x2="48.0661" y2="75.991" gradientUnits="userSpaceOnUse">
<stop stop-color="#DED8FF"/>
<stop offset="1" stop-color="white"/>
</linearGradient>
<linearGradient id="paint1_linear_3944_187305" x1="62" y1="2" x2="62" y2="85" gradientUnits="userSpaceOnUse">
<stop stop-color="#6A66FF"/>
<stop offset="1" stop-color="#4A21EF"/>
</linearGradient>
<linearGradient id="paint2_linear_3944_187305" x1="75.5533" y1="61.9546" x2="75.5533" y2="74.1617" gradientUnits="userSpaceOnUse">
<stop stop-color="#FDFDFD" stop-opacity="0.789308"/>
<stop offset="1" stop-color="white"/>
</linearGradient>
</defs>
</svg>
